<svg width="26" height="26" viewBox="0 0 26 26" fill="none" xmlns="http://www.w3.org/2000/svg">
<path d="M17.0561 2C15.4533 2 13.8506 2.6083 12.6339 3.82495L2.50836 13.9505C2.40439 14.0503 2.32139 14.1699 2.26421 14.3022C2.20702 14.4345 2.17681 14.5769 2.17535 14.721C2.17388 14.8652 2.20119 15.0081 2.25567 15.1416C2.31015 15.275 2.39071 15.3962 2.49263 15.4982C2.59454 15.6001 2.71577 15.6806 2.84921 15.7351C2.98266 15.7896 3.12563 15.8169 3.26975 15.8154C3.41388 15.814 3.55626 15.7838 3.68857 15.7266C3.82087 15.6694 3.94044 15.5864 4.04026 15.4824L14.1658 5.35685C15.7712 3.75149 18.3411 3.75149 19.9464 5.35685C21.5518 6.96221 21.5518 9.53209 19.9464 11.1375L10.188 20.8959C9.40548 21.6784 8.16903 21.6784 7.38654 20.8959C6.60405 20.1134 6.60405 18.877 7.38654 18.0945L15.1561 10.325C15.26 10.2251 15.343 10.1056 15.4002 9.97325C15.4574 9.84095 15.4876 9.69856 15.4891 9.55444C15.4906 9.41031 15.4633 9.26734 15.4088 9.1339C15.3543 9.00045 15.2737 8.87922 15.1718 8.77731C15.0699 8.67539 14.9487 8.59483 14.8152 8.54035C14.6818 8.48587 14.5388 8.45856 14.3947 8.46003C14.2506 8.4615 14.1082 8.49171 13.9759 8.54889C13.8436 8.60607 13.724 8.68908 13.6242 8.79305L5.85464 16.5626C4.24404 18.1732 4.24404 20.8172 5.85464 22.4278C7.46523 24.0384 10.1093 24.0384 11.7199 22.4278L21.4783 12.6694C23.9116 10.236 23.9116 6.25826 21.4783 3.82495C20.2617 2.6083 18.6589 2 17.0561 2Z" fill="#BC5CFF"/>
</svg>
