<svg width="12" height="13" viewBox="0 0 12 13" fill="none" xmlns="http://www.w3.org/2000/svg">
<path d="M9.42333 1.85119C9.29015 1.71611 9.07446 1.71611 8.94128 1.85119L6.00037 4.83413L3.05969 1.85119C2.92651 1.71611 2.71083 1.71611 2.57765 1.85119L1.10037 3.34958C0.967193 3.48466 0.967193 3.70343 1.10037 3.83851L3.97072 6.74988L1.10037 9.66124C0.967193 9.79633 0.967193 10.0151 1.10037 10.1502L2.57765 11.6486C2.71083 11.7836 2.92651 11.7836 3.05969 11.6486L6.00037 8.66562L8.94128 11.6486C9.07446 11.7836 9.29015 11.7836 9.42333 11.6486L10.9006 10.1499C11.0338 10.0149 11.0338 9.7961 10.9006 9.66101L8.03049 6.74988L10.9006 3.83874C11.0338 3.70366 11.0338 3.48489 10.9006 3.34981L9.42333 1.85119Z" fill="#fff"/>
</svg>
