<svg width="14" height="14" viewBox="0 0 14 14" fill="none" xmlns="http://www.w3.org/2000/svg">
<path d="M10.9939 1.28519C10.8385 1.12759 10.5869 1.12759 10.4315 1.28519L7.00047 4.76529L3.56967 1.28519C3.41429 1.12759 3.16266 1.12759 3.00729 1.28519L1.2838 3.03331C1.12842 3.19091 1.12842 3.44613 1.2838 3.60373L4.63253 7.00033L1.2838 10.3969C1.12842 10.5545 1.12842 10.8097 1.2838 10.9673L3.00729 12.7155C3.16266 12.8731 3.41429 12.8731 3.56967 12.7155L7.00047 9.23536L10.4315 12.7155C10.5869 12.8731 10.8385 12.8731 10.9939 12.7155L12.7174 10.9671C12.8728 10.8095 12.8728 10.5542 12.7174 10.3966L9.36893 7.00032L12.7174 3.604C12.8728 3.4464 12.8728 3.19118 12.7174 3.03358L10.9939 1.28519Z" fill="white"/>
</svg>
