<svg width="26" height="26" viewBox="0 0 26 26" fill="none" xmlns="http://www.w3.org/2000/svg">
<path d="M13.0003 2.16699C7.9245 2.16699 3.79199 6.2995 3.79199 11.3753C3.79199 13.654 4.62795 15.7438 6.00098 17.3506L6.00521 17.3548L6.00838 17.359C6.00838 17.359 9.92568 21.829 11.3203 23.1597C12.2542 24.0501 13.7454 24.0501 14.6793 23.1597C16.269 21.6435 19.9933 17.3569 19.9933 17.3569L19.9954 17.3538L19.9986 17.3506C21.3729 15.7438 22.2087 13.654 22.2087 11.3753C22.2087 6.2995 18.0761 2.16699 13.0003 2.16699ZM13.0003 3.79199C17.1978 3.79199 20.5837 7.17781 20.5837 11.3753C20.5837 13.2577 19.8977 14.968 18.7629 16.2948C18.7556 16.3032 14.9449 20.6614 13.5579 21.9844C13.2362 22.2911 12.7634 22.2911 12.4417 21.9844C11.2825 20.8782 7.24842 16.3081 7.23665 16.2948L7.2356 16.2937C6.10238 14.967 5.41699 13.2572 5.41699 11.3753C5.41699 7.17781 8.80281 3.79199 13.0003 3.79199ZM13.0003 8.12533C11.9847 8.12533 11.1201 8.53544 10.5649 9.15999C10.0098 9.78455 9.75033 10.5854 9.75033 11.3753C9.75033 12.1653 10.0098 12.9661 10.5649 13.5907C11.1201 14.2152 11.9847 14.6253 13.0003 14.6253C14.016 14.6253 14.8805 14.2152 15.4357 13.5907C15.9909 12.9661 16.2503 12.1653 16.2503 11.3753C16.2503 10.5854 15.9909 9.78455 15.4357 9.15999C14.8805 8.53544 14.016 8.12533 13.0003 8.12533ZM13.0003 9.75033C13.6097 9.75033 13.9639 9.94959 14.2212 10.2391C14.4785 10.5286 14.6253 10.9465 14.6253 11.3753C14.6253 11.8041 14.4785 12.222 14.2212 12.5116C13.9639 12.8011 13.6097 13.0003 13.0003 13.0003C12.391 13.0003 12.0368 12.8011 11.7795 12.5116C11.5221 12.222 11.3753 11.8041 11.3753 11.3753C11.3753 10.9465 11.5221 10.5286 11.7795 10.2391C12.0368 9.94959 12.391 9.75033 13.0003 9.75033Z" fill="white"/>
</svg>
