<svg width="106" height="98" viewBox="0 0 106 98" fill="none" xmlns="http://www.w3.org/2000/svg">
<path d="M24.7226 65.3608L22.8052 59.0653L22.8516 58.9726L22.9028 58.9555L23.1619 58.8765L28.278 57.3163L39.6485 53.8488L30.8863 25.0907L14.4958 30.0875L12.5527 23.7224L12.6748 23.6797L12.9359 23.6001L17.0272 22.3529L51.7025 11.782L53.6443 18.1507L37.255 23.15L40.6725 34.3435L42.8072 33.693L44.7479 40.0617L42.6144 40.7122L46.0319 51.9069L83.7792 40.3985L80.3617 29.2051L75.0046 30.8375L74.0613 31.125L75.3222 35.2621L75.4283 35.6104L75.382 35.7019L75.3319 35.7178L69.0816 37.6231L67.6926 33.0668L64.1531 34.1458L62.2503 27.9028C62.24 27.8694 62.2433 27.8333 62.2595 27.8025C62.2758 27.7716 62.3036 27.7484 62.3369 27.738L62.5853 27.6624L65.7544 26.6981L64.9746 24.139L64.6889 23.2013L64.7353 23.1097L64.7865 23.0951L65.0344 23.0195L71.0356 21.1898L72.1146 24.7562L78.4162 22.8363L74.9987 11.6416L58.7962 16.5823L56.858 10.2173L56.9715 10.1794L57.2386 10.098L61.78 8.71312L79.4292 3.33105L79.4646 3.45311L90.8474 40.79L92.0788 44.8291L91.9568 44.8645L24.7226 65.3608ZM23.0859 59.1544L24.8254 64.876L24.8801 65.0557L25.0325 65.0092L91.7761 44.6643L79.2681 3.63619L57.1594 10.376L58.9013 16.0895L58.9585 16.2772L59.1034 16.233L74.995 11.3886L75.1659 11.3365L75.2013 11.4586L75.2133 11.4979L78.7201 23.0036L71.9523 25.065L70.8648 21.4974L64.9635 23.2977L65.1974 24.0646L66.051 26.8641L62.5115 27.943L64.2532 33.6562L64.3105 33.8443L64.4551 33.8003L67.6852 32.8168L67.8501 32.7666L67.9006 32.9323L69.1815 37.134L69.239 37.3228L69.3829 37.2789L75.1403 35.5225L73.7513 30.9675L74.7469 30.6639L80.3464 28.9563L80.5192 28.9036L80.5558 29.0256L80.5667 29.0615L84.0758 40.5658L83.9537 40.6012L45.8598 52.2121L45.8244 52.09L42.3044 40.545L44.4391 39.8945L42.64 33.9932L40.5029 34.6486L40.4675 34.5266L36.9499 22.9901L53.3404 17.986L51.5413 12.0835L12.8591 23.8811L14.6012 29.5967L14.6581 29.7836L14.8038 29.7392L30.8832 24.8372L31.0486 24.7867L31.099 24.9519L39.9573 54.0111L23.0859 59.1544Z" fill="url(#paint0_linear_36_1401)"/>
<path d="M24.7226 65.3608L22.8052 59.0653L22.8516 58.9726L22.9028 58.9555L23.1619 58.8765L28.278 57.3163L39.6485 53.8488L30.8863 25.0907L14.4958 30.0875L12.5527 23.7224L12.6748 23.6797L12.9359 23.6001L17.0272 22.3529L51.7025 11.782L53.6443 18.1507L37.255 23.15L40.6725 34.3435L42.8072 33.693L44.7479 40.0617L42.6144 40.7122L46.0319 51.9069L83.7792 40.3985L80.3617 29.2051L75.0046 30.8375L74.0613 31.125L75.3222 35.2621L75.4283 35.6104L75.382 35.7019L75.3319 35.7178L69.0816 37.6231L67.6926 33.0668L64.1531 34.1458L62.2503 27.9028C62.24 27.8694 62.2433 27.8333 62.2595 27.8025C62.2758 27.7716 62.3036 27.7484 62.3369 27.738L62.5853 27.6624L65.7544 26.6981L64.9746 24.139L64.6889 23.2013L64.7353 23.1097L64.7865 23.0951L65.0344 23.0195L71.0356 21.1898L72.1146 24.7562L78.4162 22.8363L74.9987 11.6416L58.7962 16.5823L56.858 10.2173L56.9715 10.1794L57.2386 10.098L61.78 8.71312L79.4292 3.33105L79.4646 3.45311L90.8474 40.79L92.0788 44.8291L91.9568 44.8645L24.7226 65.3608ZM23.0859 59.1544L24.8254 64.876L24.8801 65.0557L25.0325 65.0092L91.7761 44.6643L79.2681 3.63619L57.1594 10.376L58.9013 16.0895L58.9585 16.2772L59.1034 16.233L74.995 11.3886L75.1659 11.3365L75.2013 11.4586L75.2133 11.4979L78.7201 23.0036L71.9523 25.065L70.8648 21.4974L64.9635 23.2977L65.1974 24.0646L66.051 26.8641L62.5115 27.943L64.2532 33.6562L64.3105 33.8443L64.4551 33.8003L67.6852 32.8168L67.8501 32.7666L67.9006 32.9323L69.1815 37.134L69.239 37.3228L69.3829 37.2789L75.1403 35.5225L73.7513 30.9675L74.7469 30.6639L80.3464 28.9563L80.5192 28.9036L80.5558 29.0256L80.5667 29.0615L84.0758 40.5658L83.9537 40.6012L45.8598 52.2121L45.8244 52.09L42.3044 40.545L44.4391 39.8945L42.64 33.9932L40.5029 34.6486L40.4675 34.5266L36.9499 22.9901L53.3404 17.986L51.5413 12.0835L12.8591 23.8811L14.6012 29.5967L14.6581 29.7836L14.8038 29.7392L30.8832 24.8372L31.0486 24.7867L31.099 24.9519L39.9573 54.0111L23.0859 59.1544Z" fill="#1E1E1E" fill-opacity="0.7"/>
<path d="M16.1135 26.3987L14.6012 29.5967L14.4662 29.882L14.6869 29.9864L14.8038 29.7392L16.3342 26.503L16.1135 26.3987Z" fill="url(#paint1_linear_36_1401)"/>
<path d="M16.1135 26.3987L14.6012 29.5967L14.4662 29.882L14.6869 29.9864L14.8038 29.7392L16.3342 26.503L16.1135 26.3987Z" fill="#1E1E1E" fill-opacity="0.7"/>
<path d="M32.5062 21.4053L30.8832 24.8372L30.8589 24.8886L31.0796 24.993L31.099 24.9519L32.7269 21.5096L32.5062 21.4053Z" fill="url(#paint2_linear_36_1401)"/>
<path d="M32.5062 21.4053L30.8832 24.8372L30.8589 24.8886L31.0796 24.993L31.099 24.9519L32.7269 21.5096L32.5062 21.4053Z" fill="#1E1E1E" fill-opacity="0.7"/>
<path d="M24.4698 55.5399L22.8225 59.0233L23.0432 59.1276L23.1619 58.8765L24.6905 55.6443L24.4698 55.5399Z" fill="url(#paint3_linear_36_1401)"/>
<path d="M24.4698 55.5399L22.8225 59.0233L23.0432 59.1276L23.1619 58.8765L24.6905 55.6443L24.4698 55.5399Z" fill="#1E1E1E" fill-opacity="0.7"/>
<path d="M26.3411 61.671L24.8254 64.876L24.6938 65.1544L24.9145 65.2587L25.0325 65.0092L26.5618 61.7754L26.3411 61.671Z" fill="url(#paint4_linear_36_1401)"/>
<path d="M26.3411 61.671L24.8254 64.876L24.6938 65.1544L24.9145 65.2587L25.0325 65.0092L26.5618 61.7754L26.3411 61.671Z" fill="#1E1E1E" fill-opacity="0.7"/>
<path d="M76.8325 32.0685L75.3222 35.2621L75.1852 35.5518L75.4058 35.6562L77.0531 32.1728L76.8325 32.0685Z" fill="url(#paint5_linear_36_1401)"/>
<path d="M76.8325 32.0685L75.3222 35.2621L75.1852 35.5518L75.4058 35.6562L77.0531 32.1728L76.8325 32.0685Z" fill="#1E1E1E" fill-opacity="0.7"/>
<path d="M70.6946 33.9344L69.1815 37.134L69.0473 37.4177L69.2679 37.5221L69.3829 37.2789L70.9152 34.0387L70.6946 33.9344Z" fill="url(#paint6_linear_36_1401)"/>
<path d="M70.6946 33.9344L69.1815 37.134L69.0473 37.4177L69.2679 37.5221L69.3829 37.2789L70.9152 34.0387L70.6946 33.9344Z" fill="#1E1E1E" fill-opacity="0.7"/>
<path d="M65.7666 30.4561L64.2532 33.6562L64.1192 33.9394L64.3399 34.0438L64.4551 33.8003L65.9872 30.5604L65.7666 30.4561Z" fill="url(#paint7_linear_36_1401)"/>
<path d="M65.7666 30.4561L64.2532 33.6562L64.1192 33.9394L64.3399 34.0438L64.4551 33.8003L65.9872 30.5604L65.7666 30.4561Z" fill="#1E1E1E" fill-opacity="0.7"/>
<path d="M69.3091 29.3829L67.6852 32.8168L67.6618 32.8662L67.8825 32.9705L67.9006 32.9323L69.5298 29.4872L69.3091 29.3829Z" fill="url(#paint8_linear_36_1401)"/>
<path d="M69.3091 29.3829L67.6852 32.8168L67.6618 32.8662L67.8825 32.9705L67.9006 32.9323L69.5298 29.4872L69.3091 29.3829Z" fill="#1E1E1E" fill-opacity="0.7"/>
<path d="M63.8952 24.3214L62.2479 27.8047L62.4686 27.9091L62.5853 27.6624L64.1159 24.4257L63.8952 24.3214Z" fill="url(#paint9_linear_36_1401)"/>
<path d="M63.8952 24.3214L62.2479 27.8047L62.4686 27.9091L62.5853 27.6624L64.1159 24.4257L63.8952 24.3214Z" fill="#1E1E1E" fill-opacity="0.7"/>
<path d="M66.3463 19.6744L64.699 23.1577L64.9197 23.2621L65.0344 23.0195L66.567 19.7787L66.3463 19.6744Z" fill="url(#paint10_linear_36_1401)"/>
<path d="M66.3463 19.6744L64.699 23.1577L64.9197 23.2621L65.0344 23.0195L66.567 19.7787L66.3463 19.6744Z" fill="#1E1E1E" fill-opacity="0.7"/>
<path d="M81.9741 25.5143L80.3464 28.9563L80.3268 28.9977L80.5475 29.102L80.5667 29.0615L82.1948 25.6187L81.9741 25.5143Z" fill="url(#paint11_linear_36_1401)"/>
<path d="M81.9741 25.5143L80.3464 28.9563L80.3268 28.9977L80.5475 29.102L80.5667 29.0615L82.1948 25.6187L81.9741 25.5143Z" fill="#1E1E1E" fill-opacity="0.7"/>
<path d="M76.6202 7.95205L74.995 11.3886L74.9728 11.4354L75.1935 11.5397L75.2133 11.4979L76.8408 8.05641L76.6202 7.95205Z" fill="url(#paint12_linear_36_1401)"/>
<path d="M76.6202 7.95205L74.995 11.3886L74.9728 11.4354L75.1935 11.5397L75.2133 11.4979L76.8408 8.05641L76.6202 7.95205Z" fill="#1E1E1E" fill-opacity="0.7"/>
<path d="M58.5467 6.76096L56.8994 10.2443L57.1201 10.3487L57.2386 10.098L58.7674 6.86532L58.5467 6.76096Z" fill="url(#paint13_linear_36_1401)"/>
<path d="M58.5467 6.76096L56.8994 10.2443L57.1201 10.3487L57.2386 10.098L58.7674 6.86532L58.5467 6.76096Z" fill="#1E1E1E" fill-opacity="0.7"/>
<path d="M60.4126 12.8938L58.9013 16.0895L58.7653 16.3771L58.9859 16.4815L59.1034 16.233L60.6332 12.9982L60.4126 12.8938Z" fill="url(#paint14_linear_36_1401)"/>
<path d="M60.4126 12.8938L58.9013 16.0895L58.7653 16.3771L58.9859 16.4815L59.1034 16.233L60.6332 12.9982L60.4126 12.8938Z" fill="#1E1E1E" fill-opacity="0.7"/>
<path d="M14.2436 20.264L12.5963 23.7473L12.817 23.8516L12.9359 23.6001L14.4643 20.3683L14.2436 20.264Z" fill="url(#paint15_linear_36_1401)"/>
<path d="M14.2436 20.264L12.5963 23.7473L12.817 23.8516L12.9359 23.6001L14.4643 20.3683L14.2436 20.264Z" fill="#1E1E1E" fill-opacity="0.7"/>
<path d="M23.0859 59.1544L24.8254 64.876L26.3411 61.671L26.5618 61.7754L25.0325 65.0092L91.7761 44.6643L79.2681 3.63619L57.1594 10.376L58.9013 16.0895L60.4126 12.8938L60.6332 12.9982L59.1034 16.233L74.995 11.3886L76.6202 7.95205L76.8408 8.05641L75.2133 11.4979L78.7201 23.0036L71.9523 25.065L70.8648 21.4974L64.9635 23.2977L65.1974 24.0646L66.051 26.8641L62.5115 27.943L64.2532 33.6562L65.7666 30.4561L65.9872 30.5604L64.4551 33.8003L67.6852 32.8168L69.3091 29.3829L69.5298 29.4872L67.9006 32.9323L69.1815 37.134L70.6946 33.9344L70.9152 34.0387L69.3829 37.2789L75.1403 35.5225L73.7513 30.9675L74.7469 30.6639L80.3464 28.9563L81.9741 25.5143L82.1948 25.6187L80.5667 29.0615L84.0758 40.5658L83.9537 40.6012L45.8598 52.2121L45.8244 52.09L42.3044 40.545L44.4391 39.8945L42.64 33.9932L40.5029 34.6486L40.4675 34.5266L36.9499 22.9901L53.3404 17.986L51.5413 12.0835L12.8591 23.8811L14.6012 29.5967L16.1135 26.3987L16.3342 26.503L14.8038 29.7392L30.8832 24.8372L32.5062 21.4053L32.7269 21.5096L31.099 24.9519L39.9573 54.0111L23.0859 59.1544Z" fill="url(#paint16_linear_36_1401)"/>
<path d="M23.0859 59.1544L24.8254 64.876L26.3411 61.671L26.5618 61.7754L25.0325 65.0092L91.7761 44.6643L79.2681 3.63619L57.1594 10.376L58.9013 16.0895L60.4126 12.8938L60.6332 12.9982L59.1034 16.233L74.995 11.3886L76.6202 7.95205L76.8408 8.05641L75.2133 11.4979L78.7201 23.0036L71.9523 25.065L70.8648 21.4974L64.9635 23.2977L65.1974 24.0646L66.051 26.8641L62.5115 27.943L64.2532 33.6562L65.7666 30.4561L65.9872 30.5604L64.4551 33.8003L67.6852 32.8168L69.3091 29.3829L69.5298 29.4872L67.9006 32.9323L69.1815 37.134L70.6946 33.9344L70.9152 34.0387L69.3829 37.2789L75.1403 35.5225L73.7513 30.9675L74.7469 30.6639L80.3464 28.9563L81.9741 25.5143L82.1948 25.6187L80.5667 29.0615L84.0758 40.5658L83.9537 40.6012L45.8598 52.2121L45.8244 52.09L42.3044 40.545L44.4391 39.8945L42.64 33.9932L40.5029 34.6486L40.4675 34.5266L36.9499 22.9901L53.3404 17.986L51.5413 12.0835L12.8591 23.8811L14.6012 29.5967L16.1135 26.3987L16.3342 26.503L14.8038 29.7392L30.8832 24.8372L32.5062 21.4053L32.7269 21.5096L31.099 24.9519L39.9573 54.0111L23.0859 59.1544Z" fill="#1E1E1E" fill-opacity="0.7"/>
<path d="M62.5853 27.6624L65.7544 26.6981L64.9746 24.139L64.1159 24.4257L62.5853 27.6624Z" fill="url(#paint17_linear_36_1401)"/>
<path d="M62.5853 27.6624L65.7544 26.6981L64.9746 24.139L64.1159 24.4257L62.5853 27.6624Z" fill="#1E1E1E" fill-opacity="0.7"/>
<path d="M65.0344 23.0195L71.0356 21.1898L66.567 19.7787L65.0344 23.0195Z" fill="url(#paint18_linear_36_1401)"/>
<path d="M65.0344 23.0195L71.0356 21.1898L66.567 19.7787L65.0344 23.0195Z" fill="#1E1E1E" fill-opacity="0.7"/>
<path d="M58.7674 6.86532L57.2386 10.098L61.78 8.71312L58.7674 6.86532Z" fill="url(#paint19_linear_36_1401)"/>
<path d="M58.7674 6.86532L57.2386 10.098L61.78 8.71312L58.7674 6.86532Z" fill="#1E1E1E" fill-opacity="0.7"/>
<path d="M75.0046 30.8375L74.0613 31.125L75.3222 35.2621L76.8325 32.0685L75.0046 30.8375Z" fill="url(#paint20_linear_36_1401)"/>
<path d="M75.0046 30.8375L74.0613 31.125L75.3222 35.2621L76.8325 32.0685L75.0046 30.8375Z" fill="#1E1E1E" fill-opacity="0.7"/>
<path d="M24.6905 55.6443L23.1619 58.8765L28.278 57.3163L24.6905 55.6443Z" fill="url(#paint21_linear_36_1401)"/>
<path d="M24.6905 55.6443L23.1619 58.8765L28.278 57.3163L24.6905 55.6443Z" fill="#1E1E1E" fill-opacity="0.7"/>
<path d="M14.4643 20.3683L12.9359 23.6001L17.0272 22.3529L14.4643 20.3683Z" fill="url(#paint22_linear_36_1401)"/>
<path d="M14.4643 20.3683L12.9359 23.6001L17.0272 22.3529L14.4643 20.3683Z" fill="#1E1E1E" fill-opacity="0.7"/>
<path d="M90.8474 40.79L92.0788 44.8291L93.5763 41.1823L90.8474 40.79Z" fill="url(#paint23_linear_36_1401)"/>
<path d="M90.8474 40.79L92.0788 44.8291L93.5763 41.1823L90.8474 40.79Z" fill="#1E1E1E" fill-opacity="0.7"/>
<path d="M80.9969 0L93.5769 41.2612L26.4526 61.7259L24.5828 55.5903L41.4542 50.4469L32.6151 21.4557L16.2246 26.4525L14.3547 20.3169L53.2713 8.45339L55.1412 14.589L38.7507 19.5858L42.2341 31.0137L44.3688 30.3619L46.2399 36.4975L44.1052 37.148L47.5885 48.5759L85.5702 36.9967L82.0868 25.5689L75.5521 27.5608L76.9411 32.117L70.8055 33.9881L69.4165 29.4319L65.8794 30.5096L64.0096 24.3752L67.5466 23.2963L66.4591 19.7299L72.5948 17.8588L73.6822 21.4264L80.217 19.4345L76.7324 8.00668L60.5249 12.9474L58.6551 6.81178L80.9969 0Z" fill="url(#paint24_linear_36_1401)"/>
<path d="M0.044982 77.1941H4.45322V89.0469H8.81647V77.1941H13.2247V73.3032H0.044982V77.1941ZM14.8855 73.3032V89.0469H19.3387V73.3032H14.8855ZM22.5729 73.3032V89.0469H26.9361V73.3032H22.5729ZM25.3618 76.8343H28.3981C29.0878 76.8343 29.6201 76.9842 29.9949 77.2841C30.3698 77.584 30.5572 78.0113 30.5572 78.5661C30.5572 79.1358 30.3698 79.5707 29.9949 79.8705C29.6201 80.1704 29.0878 80.3204 28.3981 80.3204H25.3618V83.829H28.3981C29.8375 83.829 31.022 83.619 31.9516 83.1992C32.8963 82.7794 33.5935 82.1721 34.0433 81.3774C34.5081 80.5828 34.7405 79.6456 34.7405 78.5661C34.7405 77.4715 34.5081 76.5344 34.0433 75.7547C33.5935 74.975 32.8963 74.3752 31.9516 73.9554C31.022 73.5206 29.8375 73.3032 28.3981 73.3032H25.3618V76.8343ZM46.7808 89.0469H54.7201V85.5158H46.7808V89.0469ZM46.7808 76.8343H54.7201V73.3032H46.7808V76.8343ZM46.7808 82.5695H54.2703V79.1508H46.7808V82.5695ZM43.8119 73.3032V89.0469H47.9953V73.3032H43.8119ZM66.5985 73.3032L64.3494 77.4865L62.1453 73.3032H56.7249L61.6505 81.0176L56.1627 89.0469H61.583L64.3044 84.2113L66.9359 89.0469H72.3787L67.0033 81.0176L72.0413 73.3032H66.5985ZM74.0342 73.3032V89.0469H78.3975V73.3032H74.0342ZM76.8231 76.8343H79.8594C80.5491 76.8343 81.0814 76.9842 81.4563 77.2841C81.8311 77.584 82.0185 78.0113 82.0185 78.5661C82.0185 79.1358 81.8311 79.5707 81.4563 79.8705C81.0814 80.1704 80.5491 80.3204 79.8594 80.3204H76.8231V83.829H79.8594C81.2988 83.829 82.4833 83.619 83.413 83.1992C84.3576 82.7794 85.0548 82.1721 85.5046 81.3774C85.9694 80.5828 86.2019 79.6456 86.2019 78.5661C86.2019 77.4715 85.9694 76.5344 85.5046 75.7547C85.0548 74.975 84.3576 74.3752 83.413 73.9554C82.4833 73.5206 81.2988 73.3032 79.8594 73.3032H76.8231V76.8343ZM92.2414 81.175C92.2414 80.3204 92.4063 79.5707 92.7362 78.9259C93.0661 78.2812 93.5309 77.7789 94.1306 77.419C94.7304 77.0442 95.4351 76.8568 96.2448 76.8568C97.0995 76.8568 97.8192 77.0442 98.4039 77.419C99.0037 77.7789 99.461 78.2812 99.7759 78.9259C100.091 79.5707 100.248 80.3204 100.248 81.175C100.248 82.0147 100.083 82.7644 99.7534 83.4241C99.4235 84.0689 98.9587 84.5787 98.3589 84.9535C97.7742 85.3134 97.0695 85.4933 96.2448 85.4933C95.4351 85.4933 94.7304 85.3134 94.1306 84.9535C93.5309 84.5787 93.0661 84.0689 92.7362 83.4241C92.4063 82.7644 92.2414 82.0147 92.2414 81.175ZM87.6307 81.175C87.6307 82.4045 87.8407 83.5366 88.2605 84.5712C88.6803 85.6058 89.2726 86.5054 90.0373 87.2701C90.817 88.0198 91.7316 88.6046 92.7812 89.0244C93.8308 89.4292 94.9853 89.6316 96.2448 89.6316C97.5043 89.6316 98.6588 89.4292 99.7084 89.0244C100.773 88.6046 101.688 88.0198 102.452 87.2701C103.217 86.5054 103.809 85.6058 104.229 84.5712C104.649 83.5366 104.859 82.4045 104.859 81.175C104.859 79.9305 104.641 78.806 104.207 77.8014C103.787 76.7818 103.187 75.9121 102.407 75.1924C101.628 74.4577 100.713 73.8954 99.6634 73.5056C98.6288 73.1008 97.4893 72.8983 96.2448 72.8983C95.0303 72.8983 93.8982 73.1008 92.8487 73.5056C91.8141 73.8954 90.9069 74.4577 90.1272 75.1924C89.3476 75.9121 88.7328 76.7818 88.283 77.8014C87.8482 78.806 87.6307 79.9305 87.6307 81.175Z" fill="white"/>
<defs>
<linearGradient id="paint0_linear_36_1401" x1="12.5527" y1="34.3453" x2="93.5763" y2="34.3453" gradientUnits="userSpaceOnUse">
<stop stop-color="#571387"/>
<stop offset="0.25" stop-color="#9F16FF"/>
<stop offset="0.55" stop-color="white"/>
<stop offset="0.75" stop-color="#9F16FF"/>
<stop offset="1" stop-color="#571387"/>
</linearGradient>
<linearGradient id="paint1_linear_36_1401" x1="12.5527" y1="34.3453" x2="93.5763" y2="34.3453" gradientUnits="userSpaceOnUse">
<stop stop-color="#571387"/>
<stop offset="0.25" stop-color="#9F16FF"/>
<stop offset="0.55" stop-color="white"/>
<stop offset="0.75" stop-color="#9F16FF"/>
<stop offset="1" stop-color="#571387"/>
</linearGradient>
<linearGradient id="paint2_linear_36_1401" x1="12.5527" y1="34.3453" x2="93.5763" y2="34.3453" gradientUnits="userSpaceOnUse">
<stop stop-color="#571387"/>
<stop offset="0.25" stop-color="#9F16FF"/>
<stop offset="0.55" stop-color="white"/>
<stop offset="0.75" stop-color="#9F16FF"/>
<stop offset="1" stop-color="#571387"/>
</linearGradient>
<linearGradient id="paint3_linear_36_1401" x1="12.5527" y1="34.3453" x2="93.5763" y2="34.3453" gradientUnits="userSpaceOnUse">
<stop stop-color="#571387"/>
<stop offset="0.25" stop-color="#9F16FF"/>
<stop offset="0.55" stop-color="white"/>
<stop offset="0.75" stop-color="#9F16FF"/>
<stop offset="1" stop-color="#571387"/>
</linearGradient>
<linearGradient id="paint4_linear_36_1401" x1="12.5527" y1="34.3453" x2="93.5763" y2="34.3453" gradientUnits="userSpaceOnUse">
<stop stop-color="#571387"/>
<stop offset="0.25" stop-color="#9F16FF"/>
<stop offset="0.55" stop-color="white"/>
<stop offset="0.75" stop-color="#9F16FF"/>
<stop offset="1" stop-color="#571387"/>
</linearGradient>
<linearGradient id="paint5_linear_36_1401" x1="12.5527" y1="34.3453" x2="93.5763" y2="34.3453" gradientUnits="userSpaceOnUse">
<stop stop-color="#571387"/>
<stop offset="0.25" stop-color="#9F16FF"/>
<stop offset="0.55" stop-color="white"/>
<stop offset="0.75" stop-color="#9F16FF"/>
<stop offset="1" stop-color="#571387"/>
</linearGradient>
<linearGradient id="paint6_linear_36_1401" x1="12.5527" y1="34.3453" x2="93.5763" y2="34.3453" gradientUnits="userSpaceOnUse">
<stop stop-color="#571387"/>
<stop offset="0.25" stop-color="#9F16FF"/>
<stop offset="0.55" stop-color="white"/>
<stop offset="0.75" stop-color="#9F16FF"/>
<stop offset="1" stop-color="#571387"/>
</linearGradient>
<linearGradient id="paint7_linear_36_1401" x1="12.5527" y1="34.3453" x2="93.5763" y2="34.3453" gradientUnits="userSpaceOnUse">
<stop stop-color="#571387"/>
<stop offset="0.25" stop-color="#9F16FF"/>
<stop offset="0.55" stop-color="white"/>
<stop offset="0.75" stop-color="#9F16FF"/>
<stop offset="1" stop-color="#571387"/>
</linearGradient>
<linearGradient id="paint8_linear_36_1401" x1="12.5527" y1="34.3453" x2="93.5763" y2="34.3453" gradientUnits="userSpaceOnUse">
<stop stop-color="#571387"/>
<stop offset="0.25" stop-color="#9F16FF"/>
<stop offset="0.55" stop-color="white"/>
<stop offset="0.75" stop-color="#9F16FF"/>
<stop offset="1" stop-color="#571387"/>
</linearGradient>
<linearGradient id="paint9_linear_36_1401" x1="12.5527" y1="34.3453" x2="93.5763" y2="34.3453" gradientUnits="userSpaceOnUse">
<stop stop-color="#571387"/>
<stop offset="0.25" stop-color="#9F16FF"/>
<stop offset="0.55" stop-color="white"/>
<stop offset="0.75" stop-color="#9F16FF"/>
<stop offset="1" stop-color="#571387"/>
</linearGradient>
<linearGradient id="paint10_linear_36_1401" x1="12.5527" y1="34.3453" x2="93.5763" y2="34.3453" gradientUnits="userSpaceOnUse">
<stop stop-color="#571387"/>
<stop offset="0.25" stop-color="#9F16FF"/>
<stop offset="0.55" stop-color="white"/>
<stop offset="0.75" stop-color="#9F16FF"/>
<stop offset="1" stop-color="#571387"/>
</linearGradient>
<linearGradient id="paint11_linear_36_1401" x1="12.5527" y1="34.3453" x2="93.5763" y2="34.3453" gradientUnits="userSpaceOnUse">
<stop stop-color="#571387"/>
<stop offset="0.25" stop-color="#9F16FF"/>
<stop offset="0.55" stop-color="white"/>
<stop offset="0.75" stop-color="#9F16FF"/>
<stop offset="1" stop-color="#571387"/>
</linearGradient>
<linearGradient id="paint12_linear_36_1401" x1="12.5527" y1="34.3453" x2="93.5763" y2="34.3453" gradientUnits="userSpaceOnUse">
<stop stop-color="#571387"/>
<stop offset="0.25" stop-color="#9F16FF"/>
<stop offset="0.55" stop-color="white"/>
<stop offset="0.75" stop-color="#9F16FF"/>
<stop offset="1" stop-color="#571387"/>
</linearGradient>
<linearGradient id="paint13_linear_36_1401" x1="12.5527" y1="34.3453" x2="93.5763" y2="34.3453" gradientUnits="userSpaceOnUse">
<stop stop-color="#571387"/>
<stop offset="0.25" stop-color="#9F16FF"/>
<stop offset="0.55" stop-color="white"/>
<stop offset="0.75" stop-color="#9F16FF"/>
<stop offset="1" stop-color="#571387"/>
</linearGradient>
<linearGradient id="paint14_linear_36_1401" x1="12.5527" y1="34.3453" x2="93.5763" y2="34.3453" gradientUnits="userSpaceOnUse">
<stop stop-color="#571387"/>
<stop offset="0.25" stop-color="#9F16FF"/>
<stop offset="0.55" stop-color="white"/>
<stop offset="0.75" stop-color="#9F16FF"/>
<stop offset="1" stop-color="#571387"/>
</linearGradient>
<linearGradient id="paint15_linear_36_1401" x1="12.5527" y1="34.3453" x2="93.5763" y2="34.3453" gradientUnits="userSpaceOnUse">
<stop stop-color="#571387"/>
<stop offset="0.25" stop-color="#9F16FF"/>
<stop offset="0.55" stop-color="white"/>
<stop offset="0.75" stop-color="#9F16FF"/>
<stop offset="1" stop-color="#571387"/>
</linearGradient>
<linearGradient id="paint16_linear_36_1401" x1="12.5527" y1="34.3453" x2="93.5763" y2="34.3453" gradientUnits="userSpaceOnUse">
<stop stop-color="#571387"/>
<stop offset="0.25" stop-color="#9F16FF"/>
<stop offset="0.55" stop-color="white"/>
<stop offset="0.75" stop-color="#9F16FF"/>
<stop offset="1" stop-color="#571387"/>
</linearGradient>
<linearGradient id="paint17_linear_36_1401" x1="12.5527" y1="34.3453" x2="93.5763" y2="34.3453" gradientUnits="userSpaceOnUse">
<stop stop-color="#571387"/>
<stop offset="0.25" stop-color="#9F16FF"/>
<stop offset="0.55" stop-color="white"/>
<stop offset="0.75" stop-color="#9F16FF"/>
<stop offset="1" stop-color="#571387"/>
</linearGradient>
<linearGradient id="paint18_linear_36_1401" x1="12.5527" y1="34.3453" x2="93.5763" y2="34.3453" gradientUnits="userSpaceOnUse">
<stop stop-color="#571387"/>
<stop offset="0.25" stop-color="#9F16FF"/>
<stop offset="0.55" stop-color="white"/>
<stop offset="0.75" stop-color="#9F16FF"/>
<stop offset="1" stop-color="#571387"/>
</linearGradient>
<linearGradient id="paint19_linear_36_1401" x1="12.5527" y1="34.3453" x2="93.5763" y2="34.3453" gradientUnits="userSpaceOnUse">
<stop stop-color="#571387"/>
<stop offset="0.25" stop-color="#9F16FF"/>
<stop offset="0.55" stop-color="white"/>
<stop offset="0.75" stop-color="#9F16FF"/>
<stop offset="1" stop-color="#571387"/>
</linearGradient>
<linearGradient id="paint20_linear_36_1401" x1="12.5527" y1="34.3453" x2="93.5763" y2="34.3453" gradientUnits="userSpaceOnUse">
<stop stop-color="#571387"/>
<stop offset="0.25" stop-color="#9F16FF"/>
<stop offset="0.55" stop-color="white"/>
<stop offset="0.75" stop-color="#9F16FF"/>
<stop offset="1" stop-color="#571387"/>
</linearGradient>
<linearGradient id="paint21_linear_36_1401" x1="12.5527" y1="34.3453" x2="93.5763" y2="34.3453" gradientUnits="userSpaceOnUse">
<stop stop-color="#571387"/>
<stop offset="0.25" stop-color="#9F16FF"/>
<stop offset="0.55" stop-color="white"/>
<stop offset="0.75" stop-color="#9F16FF"/>
<stop offset="1" stop-color="#571387"/>
</linearGradient>
<linearGradient id="paint22_linear_36_1401" x1="12.5527" y1="34.3453" x2="93.5763" y2="34.3453" gradientUnits="userSpaceOnUse">
<stop stop-color="#571387"/>
<stop offset="0.25" stop-color="#9F16FF"/>
<stop offset="0.55" stop-color="white"/>
<stop offset="0.75" stop-color="#9F16FF"/>
<stop offset="1" stop-color="#571387"/>
</linearGradient>
<linearGradient id="paint23_linear_36_1401" x1="12.5527" y1="34.3453" x2="93.5763" y2="34.3453" gradientUnits="userSpaceOnUse">
<stop stop-color="#571387"/>
<stop offset="0.25" stop-color="#9F16FF"/>
<stop offset="0.55" stop-color="white"/>
<stop offset="0.75" stop-color="#9F16FF"/>
<stop offset="1" stop-color="#571387"/>
</linearGradient>
<linearGradient id="paint24_linear_36_1401" x1="14.3547" y1="30.8623" x2="93.5769" y2="30.8623" gradientUnits="userSpaceOnUse">
<stop stop-color="#571387"/>
<stop offset="0.25" stop-color="#9F16FF"/>
<stop offset="0.55" stop-color="white"/>
<stop offset="0.75" stop-color="#9F16FF"/>
<stop offset="1" stop-color="#571387"/>
</linearGradient>
</defs>
</svg>
