<svg width="82" height="66" viewBox="0 0 82 66" fill="none" xmlns="http://www.w3.org/2000/svg">
<path d="M12.7226 65.3608L10.8052 59.0653L10.8516 58.9726L10.9028 58.9555L11.1619 58.8765L16.278 57.3163L27.6485 53.8488L18.8863 25.0907L2.49582 30.0875L0.552734 23.7224L0.674787 23.6797L0.935907 23.6001L5.0272 22.3529L39.7025 11.782L41.6443 18.1507L25.255 23.15L28.6725 34.3435L30.8072 33.693L32.7479 40.0617L30.6144 40.7122L34.0319 51.9069L71.7792 40.3985L68.3617 29.2051L63.0046 30.8375L62.0613 31.125L63.3222 35.2621L63.4283 35.6104L63.382 35.7019L63.3319 35.7178L57.0816 37.6231L55.6926 33.0668L52.1531 34.1458L50.2503 27.9028C50.24 27.8694 50.2433 27.8333 50.2595 27.8025C50.2758 27.7716 50.3036 27.7484 50.3369 27.738L50.5853 27.6624L53.7544 26.6981L52.9746 24.139L52.6889 23.2013L52.7353 23.1097L52.7865 23.0951L53.0344 23.0195L59.0356 21.1898L60.1146 24.7562L66.4162 22.8363L62.9987 11.6416L46.7962 16.5823L44.858 10.2173L44.9715 10.1794L45.2386 10.098L49.78 8.71312L67.4292 3.33105L67.4646 3.45311L78.8474 40.79L80.0788 44.8291L79.9567 44.8645L12.7226 65.3608ZM11.0859 59.1544L12.8254 64.876L12.8801 65.0557L13.0325 65.0092L79.7761 44.6643L67.2681 3.63619L45.1594 10.376L46.9013 16.0895L46.9585 16.2772L47.1034 16.233L62.995 11.3886L63.1659 11.3365L63.2013 11.4586L63.2133 11.4979L66.7201 23.0036L59.9523 25.065L58.8648 21.4974L52.9635 23.2977L53.1974 24.0646L54.051 26.8641L50.5115 27.943L52.2532 33.6562L52.3105 33.8443L52.4551 33.8003L55.6852 32.8168L55.8501 32.7666L55.9006 32.9323L57.1815 37.134L57.239 37.3228L57.3829 37.2789L63.1403 35.5225L61.7513 30.9675L62.7469 30.6639L68.3464 28.9563L68.5192 28.9036L68.5558 29.0257L68.5667 29.0615L72.0758 40.5658L71.9537 40.6012L33.8598 52.2121L33.8244 52.09L30.3044 40.545L32.4391 39.8945L30.64 33.9932L28.5029 34.6486L28.4675 34.5266L24.9499 22.9901L41.3404 17.986L39.5413 12.0835L0.859087 23.8811L2.60117 29.5967L2.65815 29.7836L2.80379 29.7392L18.8832 24.8372L19.0486 24.7867L19.099 24.9519L27.9573 54.0111L11.0859 59.1544Z" fill="url(#paint0_linear_36_1403)"/>
<path d="M12.7226 65.3608L10.8052 59.0653L10.8516 58.9726L10.9028 58.9555L11.1619 58.8765L16.278 57.3163L27.6485 53.8488L18.8863 25.0907L2.49582 30.0875L0.552734 23.7224L0.674787 23.6797L0.935907 23.6001L5.0272 22.3529L39.7025 11.782L41.6443 18.1507L25.255 23.15L28.6725 34.3435L30.8072 33.693L32.7479 40.0617L30.6144 40.7122L34.0319 51.9069L71.7792 40.3985L68.3617 29.2051L63.0046 30.8375L62.0613 31.125L63.3222 35.2621L63.4283 35.6104L63.382 35.7019L63.3319 35.7178L57.0816 37.6231L55.6926 33.0668L52.1531 34.1458L50.2503 27.9028C50.24 27.8694 50.2433 27.8333 50.2595 27.8025C50.2758 27.7716 50.3036 27.7484 50.3369 27.738L50.5853 27.6624L53.7544 26.6981L52.9746 24.139L52.6889 23.2013L52.7353 23.1097L52.7865 23.0951L53.0344 23.0195L59.0356 21.1898L60.1146 24.7562L66.4162 22.8363L62.9987 11.6416L46.7962 16.5823L44.858 10.2173L44.9715 10.1794L45.2386 10.098L49.78 8.71312L67.4292 3.33105L67.4646 3.45311L78.8474 40.79L80.0788 44.8291L79.9567 44.8645L12.7226 65.3608ZM11.0859 59.1544L12.8254 64.876L12.8801 65.0557L13.0325 65.0092L79.7761 44.6643L67.2681 3.63619L45.1594 10.376L46.9013 16.0895L46.9585 16.2772L47.1034 16.233L62.995 11.3886L63.1659 11.3365L63.2013 11.4586L63.2133 11.4979L66.7201 23.0036L59.9523 25.065L58.8648 21.4974L52.9635 23.2977L53.1974 24.0646L54.051 26.8641L50.5115 27.943L52.2532 33.6562L52.3105 33.8443L52.4551 33.8003L55.6852 32.8168L55.8501 32.7666L55.9006 32.9323L57.1815 37.134L57.239 37.3228L57.3829 37.2789L63.1403 35.5225L61.7513 30.9675L62.7469 30.6639L68.3464 28.9563L68.5192 28.9036L68.5558 29.0257L68.5667 29.0615L72.0758 40.5658L71.9537 40.6012L33.8598 52.2121L33.8244 52.09L30.3044 40.545L32.4391 39.8945L30.64 33.9932L28.5029 34.6486L28.4675 34.5266L24.9499 22.9901L41.3404 17.986L39.5413 12.0835L0.859087 23.8811L2.60117 29.5967L2.65815 29.7836L2.80379 29.7392L18.8832 24.8372L19.0486 24.7867L19.099 24.9519L27.9573 54.0111L11.0859 59.1544Z" fill="#1E1E1E" fill-opacity="0.7"/>
<path d="M4.11354 26.3987L2.60117 29.5967L2.46623 29.882L2.68691 29.9864L2.80379 29.7392L4.33422 26.503L4.11354 26.3987Z" fill="url(#paint1_linear_36_1403)"/>
<path d="M4.11354 26.3987L2.60117 29.5967L2.46623 29.882L2.68691 29.9864L2.80379 29.7392L4.33422 26.503L4.11354 26.3987Z" fill="#1E1E1E" fill-opacity="0.7"/>
<path d="M20.5062 21.4053L18.8832 24.8372L18.8589 24.8886L19.0796 24.993L19.099 24.9519L20.7269 21.5096L20.5062 21.4053Z" fill="url(#paint2_linear_36_1403)"/>
<path d="M20.5062 21.4053L18.8832 24.8372L18.8589 24.8886L19.0796 24.993L19.099 24.9519L20.7269 21.5096L20.5062 21.4053Z" fill="#1E1E1E" fill-opacity="0.7"/>
<path d="M12.4698 55.5399L10.8225 59.0233L11.0432 59.1276L11.1619 58.8765L12.6905 55.6443L12.4698 55.5399Z" fill="url(#paint3_linear_36_1403)"/>
<path d="M12.4698 55.5399L10.8225 59.0233L11.0432 59.1276L11.1619 58.8765L12.6905 55.6443L12.4698 55.5399Z" fill="#1E1E1E" fill-opacity="0.7"/>
<path d="M14.3411 61.671L12.8254 64.876L12.6938 65.1544L12.9145 65.2587L13.0325 65.0092L14.5618 61.7754L14.3411 61.671Z" fill="url(#paint4_linear_36_1403)"/>
<path d="M14.3411 61.671L12.8254 64.876L12.6938 65.1544L12.9145 65.2587L13.0325 65.0092L14.5618 61.7754L14.3411 61.671Z" fill="#1E1E1E" fill-opacity="0.7"/>
<path d="M64.8325 32.0685L63.3222 35.2621L63.1852 35.5518L63.4058 35.6562L65.0531 32.1728L64.8325 32.0685Z" fill="url(#paint5_linear_36_1403)"/>
<path d="M64.8325 32.0685L63.3222 35.2621L63.1852 35.5518L63.4058 35.6562L65.0531 32.1728L64.8325 32.0685Z" fill="#1E1E1E" fill-opacity="0.7"/>
<path d="M58.6946 33.9344L57.1815 37.134L57.0473 37.4177L57.2679 37.5221L57.3829 37.2789L58.9152 34.0387L58.6946 33.9344Z" fill="url(#paint6_linear_36_1403)"/>
<path d="M58.6946 33.9344L57.1815 37.134L57.0473 37.4177L57.2679 37.5221L57.3829 37.2789L58.9152 34.0387L58.6946 33.9344Z" fill="#1E1E1E" fill-opacity="0.7"/>
<path d="M53.7666 30.4561L52.2532 33.6562L52.1192 33.9394L52.3399 34.0438L52.4551 33.8003L53.9872 30.5604L53.7666 30.4561Z" fill="url(#paint7_linear_36_1403)"/>
<path d="M53.7666 30.4561L52.2532 33.6562L52.1192 33.9394L52.3399 34.0438L52.4551 33.8003L53.9872 30.5604L53.7666 30.4561Z" fill="#1E1E1E" fill-opacity="0.7"/>
<path d="M57.3091 29.3829L55.6852 32.8168L55.6618 32.8662L55.8825 32.9705L55.9006 32.9323L57.5298 29.4872L57.3091 29.3829Z" fill="url(#paint8_linear_36_1403)"/>
<path d="M57.3091 29.3829L55.6852 32.8168L55.6618 32.8662L55.8825 32.9705L55.9006 32.9323L57.5298 29.4872L57.3091 29.3829Z" fill="#1E1E1E" fill-opacity="0.7"/>
<path d="M51.8952 24.3214L50.2479 27.8047L50.4686 27.9091L50.5853 27.6624L52.1159 24.4257L51.8952 24.3214Z" fill="url(#paint9_linear_36_1403)"/>
<path d="M51.8952 24.3214L50.2479 27.8047L50.4686 27.9091L50.5853 27.6624L52.1159 24.4257L51.8952 24.3214Z" fill="#1E1E1E" fill-opacity="0.7"/>
<path d="M54.3463 19.6744L52.699 23.1577L52.9197 23.2621L53.0344 23.0195L54.567 19.7787L54.3463 19.6744Z" fill="url(#paint10_linear_36_1403)"/>
<path d="M54.3463 19.6744L52.699 23.1577L52.9197 23.2621L53.0344 23.0195L54.567 19.7787L54.3463 19.6744Z" fill="#1E1E1E" fill-opacity="0.7"/>
<path d="M69.9742 25.5143L68.3464 28.9563L68.3268 28.9977L68.5475 29.102L68.5667 29.0615L70.1948 25.6187L69.9742 25.5143Z" fill="url(#paint11_linear_36_1403)"/>
<path d="M69.9742 25.5143L68.3464 28.9563L68.3268 28.9977L68.5475 29.102L68.5667 29.0615L70.1948 25.6187L69.9742 25.5143Z" fill="#1E1E1E" fill-opacity="0.7"/>
<path d="M64.6202 7.95205L62.995 11.3886L62.9728 11.4354L63.1935 11.5397L63.2133 11.4979L64.8408 8.05641L64.6202 7.95205Z" fill="url(#paint12_linear_36_1403)"/>
<path d="M64.6202 7.95205L62.995 11.3886L62.9728 11.4354L63.1935 11.5397L63.2133 11.4979L64.8408 8.05641L64.6202 7.95205Z" fill="#1E1E1E" fill-opacity="0.7"/>
<path d="M46.5467 6.76096L44.8994 10.2443L45.1201 10.3487L45.2386 10.098L46.7674 6.86532L46.5467 6.76096Z" fill="url(#paint13_linear_36_1403)"/>
<path d="M46.5467 6.76096L44.8994 10.2443L45.1201 10.3487L45.2386 10.098L46.7674 6.86532L46.5467 6.76096Z" fill="#1E1E1E" fill-opacity="0.7"/>
<path d="M48.4126 12.8938L46.9013 16.0895L46.7653 16.3771L46.9859 16.4815L47.1034 16.233L48.6332 12.9982L48.4126 12.8938Z" fill="url(#paint14_linear_36_1403)"/>
<path d="M48.4126 12.8938L46.9013 16.0895L46.7653 16.3771L46.9859 16.4815L47.1034 16.233L48.6332 12.9982L48.4126 12.8938Z" fill="#1E1E1E" fill-opacity="0.7"/>
<path d="M2.24359 20.264L0.596285 23.7473L0.816959 23.8516L0.935907 23.6001L2.46427 20.3683L2.24359 20.264Z" fill="url(#paint15_linear_36_1403)"/>
<path d="M2.24359 20.264L0.596285 23.7473L0.816959 23.8516L0.935907 23.6001L2.46427 20.3683L2.24359 20.264Z" fill="#1E1E1E" fill-opacity="0.7"/>
<path d="M11.0859 59.1544L12.8254 64.876L14.3411 61.671L14.5618 61.7754L13.0325 65.0092L79.7761 44.6643L67.2681 3.63619L45.1594 10.376L46.9013 16.0895L48.4126 12.8938L48.6332 12.9982L47.1034 16.233L62.995 11.3886L64.6202 7.95205L64.8408 8.05641L63.2133 11.4979L66.7201 23.0036L59.9523 25.065L58.8648 21.4974L52.9635 23.2977L53.1974 24.0646L54.051 26.8641L50.5115 27.943L52.2532 33.6562L53.7666 30.4561L53.9872 30.5604L52.4551 33.8003L55.6852 32.8168L57.3091 29.3829L57.5298 29.4872L55.9006 32.9323L57.1815 37.134L58.6946 33.9344L58.9152 34.0387L57.3829 37.2789L63.1403 35.5225L61.7513 30.9675L62.7469 30.6639L68.3464 28.9563L69.9742 25.5143L70.1948 25.6187L68.5667 29.0615L72.0758 40.5658L71.9537 40.6012L33.8598 52.2121L33.8244 52.09L30.3044 40.545L32.4391 39.8945L30.64 33.9932L28.5029 34.6486L28.4675 34.5266L24.9499 22.9901L41.3404 17.986L39.5413 12.0835L0.859087 23.8811L2.60117 29.5967L4.11354 26.3987L4.33422 26.503L2.80379 29.7392L18.8832 24.8372L20.5062 21.4053L20.7269 21.5096L19.099 24.9519L27.9573 54.0111L11.0859 59.1544Z" fill="url(#paint16_linear_36_1403)"/>
<path d="M11.0859 59.1544L12.8254 64.876L14.3411 61.671L14.5618 61.7754L13.0325 65.0092L79.7761 44.6643L67.2681 3.63619L45.1594 10.376L46.9013 16.0895L48.4126 12.8938L48.6332 12.9982L47.1034 16.233L62.995 11.3886L64.6202 7.95205L64.8408 8.05641L63.2133 11.4979L66.7201 23.0036L59.9523 25.065L58.8648 21.4974L52.9635 23.2977L53.1974 24.0646L54.051 26.8641L50.5115 27.943L52.2532 33.6562L53.7666 30.4561L53.9872 30.5604L52.4551 33.8003L55.6852 32.8168L57.3091 29.3829L57.5298 29.4872L55.9006 32.9323L57.1815 37.134L58.6946 33.9344L58.9152 34.0387L57.3829 37.2789L63.1403 35.5225L61.7513 30.9675L62.7469 30.6639L68.3464 28.9563L69.9742 25.5143L70.1948 25.6187L68.5667 29.0615L72.0758 40.5658L71.9537 40.6012L33.8598 52.2121L33.8244 52.09L30.3044 40.545L32.4391 39.8945L30.64 33.9932L28.5029 34.6486L28.4675 34.5266L24.9499 22.9901L41.3404 17.986L39.5413 12.0835L0.859087 23.8811L2.60117 29.5967L4.11354 26.3987L4.33422 26.503L2.80379 29.7392L18.8832 24.8372L20.5062 21.4053L20.7269 21.5096L19.099 24.9519L27.9573 54.0111L11.0859 59.1544Z" fill="#1E1E1E" fill-opacity="0.7"/>
<path d="M50.5853 27.6624L53.7544 26.6981L52.9746 24.139L52.1159 24.4257L50.5853 27.6624Z" fill="url(#paint17_linear_36_1403)"/>
<path d="M50.5853 27.6624L53.7544 26.6981L52.9746 24.139L52.1159 24.4257L50.5853 27.6624Z" fill="#1E1E1E" fill-opacity="0.7"/>
<path d="M53.0344 23.0195L59.0356 21.1898L54.567 19.7787L53.0344 23.0195Z" fill="url(#paint18_linear_36_1403)"/>
<path d="M53.0344 23.0195L59.0356 21.1898L54.567 19.7787L53.0344 23.0195Z" fill="#1E1E1E" fill-opacity="0.7"/>
<path d="M46.7674 6.86532L45.2386 10.098L49.78 8.71312L46.7674 6.86532Z" fill="url(#paint19_linear_36_1403)"/>
<path d="M46.7674 6.86532L45.2386 10.098L49.78 8.71312L46.7674 6.86532Z" fill="#1E1E1E" fill-opacity="0.7"/>
<path d="M63.0046 30.8375L62.0613 31.125L63.3222 35.2621L64.8325 32.0685L63.0046 30.8375Z" fill="url(#paint20_linear_36_1403)"/>
<path d="M63.0046 30.8375L62.0613 31.125L63.3222 35.2621L64.8325 32.0685L63.0046 30.8375Z" fill="#1E1E1E" fill-opacity="0.7"/>
<path d="M12.6905 55.6443L11.1619 58.8765L16.278 57.3163L12.6905 55.6443Z" fill="url(#paint21_linear_36_1403)"/>
<path d="M12.6905 55.6443L11.1619 58.8765L16.278 57.3163L12.6905 55.6443Z" fill="#1E1E1E" fill-opacity="0.7"/>
<path d="M2.46427 20.3683L0.935907 23.6001L5.0272 22.3529L2.46427 20.3683Z" fill="url(#paint22_linear_36_1403)"/>
<path d="M2.46427 20.3683L0.935907 23.6001L5.0272 22.3529L2.46427 20.3683Z" fill="#1E1E1E" fill-opacity="0.7"/>
<path d="M78.8474 40.79L80.0788 44.8291L81.5763 41.1823L78.8474 40.79Z" fill="url(#paint23_linear_36_1403)"/>
<path d="M78.8474 40.79L80.0788 44.8291L81.5763 41.1823L78.8474 40.79Z" fill="#1E1E1E" fill-opacity="0.7"/>
<path d="M68.9969 0L81.5769 41.2612L14.4526 61.7259L12.5828 55.5902L29.4542 50.4469L20.6151 21.4557L4.22459 26.4525L2.35474 20.3169L41.2713 8.45339L43.1412 14.589L26.7507 19.5858L30.2341 31.0137L32.3688 30.3619L34.2399 36.4975L32.1052 37.148L35.5885 48.5759L73.5702 36.9967L70.0868 25.5689L63.5521 27.5608L64.9411 32.117L58.8055 33.9881L57.4165 29.4319L53.8794 30.5096L52.0096 24.3752L55.5466 23.2963L54.4591 19.7299L60.5948 17.8588L61.6822 21.4264L68.217 19.4345L64.7323 8.00668L48.5249 12.9474L46.6551 6.81178L68.9969 0Z" fill="url(#paint24_linear_36_1403)"/>
<defs>
<linearGradient id="paint0_linear_36_1403" x1="0.552734" y1="34.3453" x2="81.5763" y2="34.3453" gradientUnits="userSpaceOnUse">
<stop stop-color="#571387"/>
<stop offset="0.25" stop-color="#9F16FF"/>
<stop offset="0.55" stop-color="white"/>
<stop offset="0.75" stop-color="#9F16FF"/>
<stop offset="1" stop-color="#571387"/>
</linearGradient>
<linearGradient id="paint1_linear_36_1403" x1="0.552734" y1="34.3453" x2="81.5763" y2="34.3453" gradientUnits="userSpaceOnUse">
<stop stop-color="#571387"/>
<stop offset="0.25" stop-color="#9F16FF"/>
<stop offset="0.55" stop-color="white"/>
<stop offset="0.75" stop-color="#9F16FF"/>
<stop offset="1" stop-color="#571387"/>
</linearGradient>
<linearGradient id="paint2_linear_36_1403" x1="0.552734" y1="34.3453" x2="81.5763" y2="34.3453" gradientUnits="userSpaceOnUse">
<stop stop-color="#571387"/>
<stop offset="0.25" stop-color="#9F16FF"/>
<stop offset="0.55" stop-color="white"/>
<stop offset="0.75" stop-color="#9F16FF"/>
<stop offset="1" stop-color="#571387"/>
</linearGradient>
<linearGradient id="paint3_linear_36_1403" x1="0.552734" y1="34.3453" x2="81.5763" y2="34.3453" gradientUnits="userSpaceOnUse">
<stop stop-color="#571387"/>
<stop offset="0.25" stop-color="#9F16FF"/>
<stop offset="0.55" stop-color="white"/>
<stop offset="0.75" stop-color="#9F16FF"/>
<stop offset="1" stop-color="#571387"/>
</linearGradient>
<linearGradient id="paint4_linear_36_1403" x1="0.552734" y1="34.3453" x2="81.5763" y2="34.3453" gradientUnits="userSpaceOnUse">
<stop stop-color="#571387"/>
<stop offset="0.25" stop-color="#9F16FF"/>
<stop offset="0.55" stop-color="white"/>
<stop offset="0.75" stop-color="#9F16FF"/>
<stop offset="1" stop-color="#571387"/>
</linearGradient>
<linearGradient id="paint5_linear_36_1403" x1="0.552734" y1="34.3453" x2="81.5763" y2="34.3453" gradientUnits="userSpaceOnUse">
<stop stop-color="#571387"/>
<stop offset="0.25" stop-color="#9F16FF"/>
<stop offset="0.55" stop-color="white"/>
<stop offset="0.75" stop-color="#9F16FF"/>
<stop offset="1" stop-color="#571387"/>
</linearGradient>
<linearGradient id="paint6_linear_36_1403" x1="0.552734" y1="34.3453" x2="81.5763" y2="34.3453" gradientUnits="userSpaceOnUse">
<stop stop-color="#571387"/>
<stop offset="0.25" stop-color="#9F16FF"/>
<stop offset="0.55" stop-color="white"/>
<stop offset="0.75" stop-color="#9F16FF"/>
<stop offset="1" stop-color="#571387"/>
</linearGradient>
<linearGradient id="paint7_linear_36_1403" x1="0.552734" y1="34.3453" x2="81.5763" y2="34.3453" gradientUnits="userSpaceOnUse">
<stop stop-color="#571387"/>
<stop offset="0.25" stop-color="#9F16FF"/>
<stop offset="0.55" stop-color="white"/>
<stop offset="0.75" stop-color="#9F16FF"/>
<stop offset="1" stop-color="#571387"/>
</linearGradient>
<linearGradient id="paint8_linear_36_1403" x1="0.552734" y1="34.3453" x2="81.5763" y2="34.3453" gradientUnits="userSpaceOnUse">
<stop stop-color="#571387"/>
<stop offset="0.25" stop-color="#9F16FF"/>
<stop offset="0.55" stop-color="white"/>
<stop offset="0.75" stop-color="#9F16FF"/>
<stop offset="1" stop-color="#571387"/>
</linearGradient>
<linearGradient id="paint9_linear_36_1403" x1="0.552734" y1="34.3453" x2="81.5763" y2="34.3453" gradientUnits="userSpaceOnUse">
<stop stop-color="#571387"/>
<stop offset="0.25" stop-color="#9F16FF"/>
<stop offset="0.55" stop-color="white"/>
<stop offset="0.75" stop-color="#9F16FF"/>
<stop offset="1" stop-color="#571387"/>
</linearGradient>
<linearGradient id="paint10_linear_36_1403" x1="0.552734" y1="34.3453" x2="81.5763" y2="34.3453" gradientUnits="userSpaceOnUse">
<stop stop-color="#571387"/>
<stop offset="0.25" stop-color="#9F16FF"/>
<stop offset="0.55" stop-color="white"/>
<stop offset="0.75" stop-color="#9F16FF"/>
<stop offset="1" stop-color="#571387"/>
</linearGradient>
<linearGradient id="paint11_linear_36_1403" x1="0.552734" y1="34.3453" x2="81.5763" y2="34.3453" gradientUnits="userSpaceOnUse">
<stop stop-color="#571387"/>
<stop offset="0.25" stop-color="#9F16FF"/>
<stop offset="0.55" stop-color="white"/>
<stop offset="0.75" stop-color="#9F16FF"/>
<stop offset="1" stop-color="#571387"/>
</linearGradient>
<linearGradient id="paint12_linear_36_1403" x1="0.552734" y1="34.3453" x2="81.5763" y2="34.3453" gradientUnits="userSpaceOnUse">
<stop stop-color="#571387"/>
<stop offset="0.25" stop-color="#9F16FF"/>
<stop offset="0.55" stop-color="white"/>
<stop offset="0.75" stop-color="#9F16FF"/>
<stop offset="1" stop-color="#571387"/>
</linearGradient>
<linearGradient id="paint13_linear_36_1403" x1="0.552734" y1="34.3453" x2="81.5763" y2="34.3453" gradientUnits="userSpaceOnUse">
<stop stop-color="#571387"/>
<stop offset="0.25" stop-color="#9F16FF"/>
<stop offset="0.55" stop-color="white"/>
<stop offset="0.75" stop-color="#9F16FF"/>
<stop offset="1" stop-color="#571387"/>
</linearGradient>
<linearGradient id="paint14_linear_36_1403" x1="0.552734" y1="34.3453" x2="81.5763" y2="34.3453" gradientUnits="userSpaceOnUse">
<stop stop-color="#571387"/>
<stop offset="0.25" stop-color="#9F16FF"/>
<stop offset="0.55" stop-color="white"/>
<stop offset="0.75" stop-color="#9F16FF"/>
<stop offset="1" stop-color="#571387"/>
</linearGradient>
<linearGradient id="paint15_linear_36_1403" x1="0.552734" y1="34.3453" x2="81.5763" y2="34.3453" gradientUnits="userSpaceOnUse">
<stop stop-color="#571387"/>
<stop offset="0.25" stop-color="#9F16FF"/>
<stop offset="0.55" stop-color="white"/>
<stop offset="0.75" stop-color="#9F16FF"/>
<stop offset="1" stop-color="#571387"/>
</linearGradient>
<linearGradient id="paint16_linear_36_1403" x1="0.552734" y1="34.3453" x2="81.5763" y2="34.3453" gradientUnits="userSpaceOnUse">
<stop stop-color="#571387"/>
<stop offset="0.25" stop-color="#9F16FF"/>
<stop offset="0.55" stop-color="white"/>
<stop offset="0.75" stop-color="#9F16FF"/>
<stop offset="1" stop-color="#571387"/>
</linearGradient>
<linearGradient id="paint17_linear_36_1403" x1="0.552734" y1="34.3453" x2="81.5763" y2="34.3453" gradientUnits="userSpaceOnUse">
<stop stop-color="#571387"/>
<stop offset="0.25" stop-color="#9F16FF"/>
<stop offset="0.55" stop-color="white"/>
<stop offset="0.75" stop-color="#9F16FF"/>
<stop offset="1" stop-color="#571387"/>
</linearGradient>
<linearGradient id="paint18_linear_36_1403" x1="0.552734" y1="34.3453" x2="81.5763" y2="34.3453" gradientUnits="userSpaceOnUse">
<stop stop-color="#571387"/>
<stop offset="0.25" stop-color="#9F16FF"/>
<stop offset="0.55" stop-color="white"/>
<stop offset="0.75" stop-color="#9F16FF"/>
<stop offset="1" stop-color="#571387"/>
</linearGradient>
<linearGradient id="paint19_linear_36_1403" x1="0.552734" y1="34.3453" x2="81.5763" y2="34.3453" gradientUnits="userSpaceOnUse">
<stop stop-color="#571387"/>
<stop offset="0.25" stop-color="#9F16FF"/>
<stop offset="0.55" stop-color="white"/>
<stop offset="0.75" stop-color="#9F16FF"/>
<stop offset="1" stop-color="#571387"/>
</linearGradient>
<linearGradient id="paint20_linear_36_1403" x1="0.552734" y1="34.3453" x2="81.5763" y2="34.3453" gradientUnits="userSpaceOnUse">
<stop stop-color="#571387"/>
<stop offset="0.25" stop-color="#9F16FF"/>
<stop offset="0.55" stop-color="white"/>
<stop offset="0.75" stop-color="#9F16FF"/>
<stop offset="1" stop-color="#571387"/>
</linearGradient>
<linearGradient id="paint21_linear_36_1403" x1="0.552734" y1="34.3453" x2="81.5763" y2="34.3453" gradientUnits="userSpaceOnUse">
<stop stop-color="#571387"/>
<stop offset="0.25" stop-color="#9F16FF"/>
<stop offset="0.55" stop-color="white"/>
<stop offset="0.75" stop-color="#9F16FF"/>
<stop offset="1" stop-color="#571387"/>
</linearGradient>
<linearGradient id="paint22_linear_36_1403" x1="0.552734" y1="34.3453" x2="81.5763" y2="34.3453" gradientUnits="userSpaceOnUse">
<stop stop-color="#571387"/>
<stop offset="0.25" stop-color="#9F16FF"/>
<stop offset="0.55" stop-color="white"/>
<stop offset="0.75" stop-color="#9F16FF"/>
<stop offset="1" stop-color="#571387"/>
</linearGradient>
<linearGradient id="paint23_linear_36_1403" x1="0.552734" y1="34.3453" x2="81.5763" y2="34.3453" gradientUnits="userSpaceOnUse">
<stop stop-color="#571387"/>
<stop offset="0.25" stop-color="#9F16FF"/>
<stop offset="0.55" stop-color="white"/>
<stop offset="0.75" stop-color="#9F16FF"/>
<stop offset="1" stop-color="#571387"/>
</linearGradient>
<linearGradient id="paint24_linear_36_1403" x1="2.35474" y1="30.8623" x2="81.5769" y2="30.8623" gradientUnits="userSpaceOnUse">
<stop stop-color="#571387"/>
<stop offset="0.25" stop-color="#9F16FF"/>
<stop offset="0.55" stop-color="white"/>
<stop offset="0.75" stop-color="#9F16FF"/>
<stop offset="1" stop-color="#571387"/>
</linearGradient>
</defs>
</svg>
