<svg width="320" height="2641" viewBox="0 0 320 2641" fill="none" xmlns="http://www.w3.org/2000/svg">
<mask id="mask0_54_2" style="mask-type:alpha" maskUnits="userSpaceOnUse" x="-293" y="576" width="612" height="612">
<rect x="-293" y="828.638" width="357.283" height="507.05" transform="rotate(-45 -293 828.638)" fill="url(#paint0_linear_54_2)"/>
</mask>
<g mask="url(#mask0_54_2)">
<rect x="-293" y="828.638" width="82.7354" height="507.05" transform="rotate(-45 -293 828.638)" fill="url(#paint1_linear_54_2)"/>
<rect x="-254.173" y="789.811" width="82.7354" height="507.05" transform="rotate(-45 -254.173 789.811)" fill="url(#paint2_linear_54_2)"/>
<rect x="-215.346" y="750.983" width="82.7354" height="507.05" transform="rotate(-45 -215.346 750.983)" fill="url(#paint3_linear_54_2)"/>
<rect x="-176.693" y="712.33" width="82.7354" height="507.05" transform="rotate(-45 -176.693 712.33)" fill="url(#paint4_linear_54_2)"/>
<rect x="-137.692" y="673.33" width="82.7354" height="507.05" transform="rotate(-45 -137.692 673.33)" fill="url(#paint5_linear_54_2)"/>
<rect x="-98.8657" y="634.503" width="82.7354" height="507.05" transform="rotate(-45 -98.8657 634.503)" fill="url(#paint6_linear_54_2)"/>
</g>
<mask id="mask1_54_2" style="mask-type:alpha" maskUnits="userSpaceOnUse" x="-183" y="2029" width="612" height="612">
<rect x="-183" y="2281.64" width="357.283" height="507.05" transform="rotate(-45 -183 2281.64)" fill="url(#paint7_linear_54_2)"/>
</mask>
<g mask="url(#mask1_54_2)">
<rect x="-183" y="2281.64" width="82.7354" height="507.05" transform="rotate(-45 -183 2281.64)" fill="url(#paint8_linear_54_2)"/>
<rect x="-144.173" y="2242.81" width="82.7354" height="507.05" transform="rotate(-45 -144.173 2242.81)" fill="url(#paint9_linear_54_2)"/>
<rect x="-105.346" y="2203.98" width="82.7354" height="507.05" transform="rotate(-45 -105.346 2203.98)" fill="url(#paint10_linear_54_2)"/>
<rect x="-66.6929" y="2165.33" width="82.7354" height="507.05" transform="rotate(-45 -66.6929 2165.33)" fill="url(#paint11_linear_54_2)"/>
<rect x="-27.6924" y="2126.33" width="82.7354" height="507.05" transform="rotate(-45 -27.6924 2126.33)" fill="url(#paint12_linear_54_2)"/>
<rect x="11.1343" y="2087.5" width="82.7354" height="507.05" transform="rotate(-45 11.1343 2087.5)" fill="url(#paint13_linear_54_2)"/>
</g>
<mask id="mask2_54_2" style="mask-type:alpha" maskUnits="userSpaceOnUse" x="-11" y="0" width="613" height="612">
<rect width="357.283" height="507.05" transform="matrix(-0.707107 -0.707107 -0.707107 0.707107 601.176 252.638)" fill="url(#paint14_linear_54_2)"/>
</mask>
<g mask="url(#mask2_54_2)">
<rect width="82.7354" height="507.05" transform="matrix(-0.707107 -0.707107 -0.707107 0.707107 601.176 252.638)" fill="url(#paint15_linear_54_2)"/>
<rect width="82.7354" height="507.05" transform="matrix(-0.707107 -0.707107 -0.707107 0.707107 562.349 213.811)" fill="url(#paint16_linear_54_2)"/>
<rect width="82.7354" height="507.05" transform="matrix(-0.707107 -0.707107 -0.707107 0.707107 523.521 174.983)" fill="url(#paint17_linear_54_2)"/>
<rect width="82.7354" height="507.05" transform="matrix(-0.707107 -0.707107 -0.707107 0.707107 484.869 136.33)" fill="url(#paint18_linear_54_2)"/>
<rect width="82.7354" height="507.05" transform="matrix(-0.707107 -0.707107 -0.707107 0.707107 445.868 97.3301)" fill="url(#paint19_linear_54_2)"/>
<rect width="82.7354" height="507.05" transform="matrix(-0.707107 -0.707107 -0.707107 0.707107 407.042 58.5029)" fill="url(#paint20_linear_54_2)"/>
</g>
<defs>
<linearGradient id="paint0_linear_54_2" x1="-114.358" y1="1335.69" x2="-114.358" y2="828.638" gradientUnits="userSpaceOnUse">
<stop stop-color="#1F232D" stop-opacity="0"/>
<stop offset="0.348958" stop-color="#1E222B"/>
<stop offset="0.703125" stop-color="#191C24"/>
<stop offset="1" stop-color="#181B22" stop-opacity="0"/>
</linearGradient>
<linearGradient id="paint1_linear_54_2" x1="-210.279" y1="1082.14" x2="-293" y2="1082.21" gradientUnits="userSpaceOnUse">
<stop stop-color="#262B37"/>
<stop offset="1" stop-color="#181B22" stop-opacity="0"/>
</linearGradient>
<linearGradient id="paint2_linear_54_2" x1="-171.452" y1="1043.32" x2="-254.173" y2="1043.39" gradientUnits="userSpaceOnUse">
<stop stop-color="#262B37"/>
<stop offset="1" stop-color="#181B22" stop-opacity="0"/>
</linearGradient>
<linearGradient id="paint3_linear_54_2" x1="-132.625" y1="1004.49" x2="-215.346" y2="1004.56" gradientUnits="userSpaceOnUse">
<stop stop-color="#262B37"/>
<stop offset="1" stop-color="#181B22" stop-opacity="0"/>
</linearGradient>
<linearGradient id="paint4_linear_54_2" x1="-93.9718" y1="965.835" x2="-176.693" y2="965.907" gradientUnits="userSpaceOnUse">
<stop stop-color="#262B37"/>
<stop offset="1" stop-color="#181B22" stop-opacity="0"/>
</linearGradient>
<linearGradient id="paint5_linear_54_2" x1="-54.9713" y1="926.835" x2="-137.692" y2="926.907" gradientUnits="userSpaceOnUse">
<stop stop-color="#262B37"/>
<stop offset="1" stop-color="#181B22" stop-opacity="0"/>
</linearGradient>
<linearGradient id="paint6_linear_54_2" x1="-16.1446" y1="888.008" x2="-98.8658" y2="888.079" gradientUnits="userSpaceOnUse">
<stop stop-color="#262B37"/>
<stop offset="1" stop-color="#181B22" stop-opacity="0"/>
</linearGradient>
<linearGradient id="paint7_linear_54_2" x1="-4.35834" y1="2788.69" x2="-4.35834" y2="2281.64" gradientUnits="userSpaceOnUse">
<stop stop-color="#1F232D" stop-opacity="0"/>
<stop offset="0.348958" stop-color="#1E222B"/>
<stop offset="0.703125" stop-color="#191C24"/>
<stop offset="1" stop-color="#181B22" stop-opacity="0"/>
</linearGradient>
<linearGradient id="paint8_linear_54_2" x1="-100.279" y1="2535.14" x2="-183" y2="2535.21" gradientUnits="userSpaceOnUse">
<stop stop-color="#262B37"/>
<stop offset="1" stop-color="#181B22" stop-opacity="0"/>
</linearGradient>
<linearGradient id="paint9_linear_54_2" x1="-61.4517" y1="2496.32" x2="-144.173" y2="2496.39" gradientUnits="userSpaceOnUse">
<stop stop-color="#262B37"/>
<stop offset="1" stop-color="#181B22" stop-opacity="0"/>
</linearGradient>
<linearGradient id="paint10_linear_54_2" x1="-22.6246" y1="2457.49" x2="-105.346" y2="2457.56" gradientUnits="userSpaceOnUse">
<stop stop-color="#262B37"/>
<stop offset="1" stop-color="#181B22" stop-opacity="0"/>
</linearGradient>
<linearGradient id="paint11_linear_54_2" x1="16.0282" y1="2418.83" x2="-66.693" y2="2418.91" gradientUnits="userSpaceOnUse">
<stop stop-color="#262B37"/>
<stop offset="1" stop-color="#181B22" stop-opacity="0"/>
</linearGradient>
<linearGradient id="paint12_linear_54_2" x1="55.0287" y1="2379.83" x2="-27.6925" y2="2379.91" gradientUnits="userSpaceOnUse">
<stop stop-color="#262B37"/>
<stop offset="1" stop-color="#181B22" stop-opacity="0"/>
</linearGradient>
<linearGradient id="paint13_linear_54_2" x1="93.8554" y1="2341.01" x2="11.1342" y2="2341.08" gradientUnits="userSpaceOnUse">
<stop stop-color="#262B37"/>
<stop offset="1" stop-color="#181B22" stop-opacity="0"/>
</linearGradient>
<linearGradient id="paint14_linear_54_2" x1="178.642" y1="507.05" x2="178.642" y2="0" gradientUnits="userSpaceOnUse">
<stop stop-color="#1F232D" stop-opacity="0"/>
<stop offset="0.348958" stop-color="#1E222B"/>
<stop offset="0.703125" stop-color="#191C24"/>
<stop offset="1" stop-color="#181B22" stop-opacity="0"/>
</linearGradient>
<linearGradient id="paint15_linear_54_2" x1="82.7211" y1="253.505" x2="-8.13333e-05" y2="253.577" gradientUnits="userSpaceOnUse">
<stop stop-color="#262B37"/>
<stop offset="1" stop-color="#181B22" stop-opacity="0"/>
</linearGradient>
<linearGradient id="paint16_linear_54_2" x1="82.7211" y1="253.505" x2="-8.13333e-05" y2="253.577" gradientUnits="userSpaceOnUse">
<stop stop-color="#262B37"/>
<stop offset="1" stop-color="#181B22" stop-opacity="0"/>
</linearGradient>
<linearGradient id="paint17_linear_54_2" x1="82.7211" y1="253.505" x2="-8.13333e-05" y2="253.577" gradientUnits="userSpaceOnUse">
<stop stop-color="#262B37"/>
<stop offset="1" stop-color="#181B22" stop-opacity="0"/>
</linearGradient>
<linearGradient id="paint18_linear_54_2" x1="82.7211" y1="253.505" x2="-8.13333e-05" y2="253.577" gradientUnits="userSpaceOnUse">
<stop stop-color="#262B37"/>
<stop offset="1" stop-color="#181B22" stop-opacity="0"/>
</linearGradient>
<linearGradient id="paint19_linear_54_2" x1="82.7211" y1="253.505" x2="-8.13333e-05" y2="253.577" gradientUnits="userSpaceOnUse">
<stop stop-color="#262B37"/>
<stop offset="1" stop-color="#181B22" stop-opacity="0"/>
</linearGradient>
<linearGradient id="paint20_linear_54_2" x1="82.7211" y1="253.505" x2="-8.13333e-05" y2="253.577" gradientUnits="userSpaceOnUse">
<stop stop-color="#262B37"/>
<stop offset="1" stop-color="#181B22" stop-opacity="0"/>
</linearGradient>
</defs>
</svg>
