<svg width="1920" height="3043" viewBox="0 0 1920 3043" fill="none" xmlns="http://www.w3.org/2000/svg">
<mask id="mask0_38_2557" style="mask-type:alpha" maskUnits="userSpaceOnUse" x="-851" y="1452" width="1591" height="1591">
<rect x="-851" y="2109.65" width="930.054" height="1319.92" transform="rotate(-45 -851 2109.65)" fill="url(#paint0_linear_38_2557)"/>
</mask>
<g mask="url(#mask0_38_2557)">
<rect x="-851" y="2109.65" width="215.371" height="1319.92" transform="rotate(-45 -851 2109.65)" fill="url(#paint1_linear_38_2557)"/>
<rect x="-749.927" y="2008.58" width="215.371" height="1319.92" transform="rotate(-45 -749.927 2008.58)" fill="url(#paint2_linear_38_2557)"/>
<rect x="-648.856" y="1907.5" width="215.371" height="1319.92" transform="rotate(-45 -648.856 1907.5)" fill="url(#paint3_linear_38_2557)"/>
<rect x="-548.237" y="1806.88" width="215.371" height="1319.92" transform="rotate(-45 -548.237 1806.88)" fill="url(#paint4_linear_38_2557)"/>
<rect x="-446.714" y="1705.36" width="215.371" height="1319.92" transform="rotate(-45 -446.714 1705.36)" fill="url(#paint5_linear_38_2557)"/>
<rect x="-345.644" y="1604.29" width="215.371" height="1319.92" transform="rotate(-45 -345.644 1604.29)" fill="url(#paint6_linear_38_2557)"/>
</g>
<mask id="mask1_38_2557" style="mask-type:alpha" maskUnits="userSpaceOnUse" x="-367" y="0" width="1188" height="1188">
<rect x="-367" y="657.647" width="930.054" height="749.048" transform="rotate(-45 -367 657.647)" fill="url(#paint7_linear_38_2557)"/>
</mask>
<g mask="url(#mask1_38_2557)">
<rect x="-367" y="657.647" width="215.371" height="749.048" transform="rotate(-45 -367 657.647)" fill="url(#paint8_linear_38_2557)"/>
<rect x="-265.927" y="556.576" width="215.371" height="749.048" transform="rotate(-45 -265.927 556.576)" fill="url(#paint9_linear_38_2557)"/>
<rect x="-164.857" y="455.504" width="215.371" height="749.048" transform="rotate(-45 -164.857 455.504)" fill="url(#paint10_linear_38_2557)"/>
<rect x="-64.2368" y="354.885" width="215.371" height="749.048" transform="rotate(-45 -64.2368 354.885)" fill="url(#paint11_linear_38_2557)"/>
<rect x="37.2866" y="253.361" width="215.371" height="749.048" transform="rotate(-45 37.2866 253.361)" fill="url(#paint12_linear_38_2557)"/>
<rect x="138.357" y="152.29" width="215.371" height="749.048" transform="rotate(-45 138.357 152.29)" fill="url(#paint13_linear_38_2557)"/>
</g>
<mask id="mask2_38_2557" style="mask-type:alpha" maskUnits="userSpaceOnUse" x="1017" y="640" width="1592" height="1592">
<rect width="930.054" height="1319.92" transform="matrix(-0.707107 -0.707107 -0.707107 0.707107 2608.14 1297.82)" fill="url(#paint14_linear_38_2557)"/>
</mask>
<g mask="url(#mask2_38_2557)">
<rect width="215.371" height="1319.92" transform="matrix(-0.707107 -0.707107 -0.707107 0.707107 2608.14 1297.82)" fill="url(#paint15_linear_38_2557)"/>
<rect width="215.371" height="1319.92" transform="matrix(-0.707107 -0.707107 -0.707107 0.707107 2507.06 1196.74)" fill="url(#paint16_linear_38_2557)"/>
<rect width="215.371" height="1319.92" transform="matrix(-0.707107 -0.707107 -0.707107 0.707107 2405.99 1095.67)" fill="url(#paint17_linear_38_2557)"/>
<rect width="215.371" height="1319.92" transform="matrix(-0.707107 -0.707107 -0.707107 0.707107 2305.37 995.053)" fill="url(#paint18_linear_38_2557)"/>
<rect width="215.371" height="1319.92" transform="matrix(-0.707107 -0.707107 -0.707107 0.707107 2203.85 893.529)" fill="url(#paint19_linear_38_2557)"/>
<rect width="215.371" height="1319.92" transform="matrix(-0.707107 -0.707107 -0.707107 0.707107 2102.78 792.457)" fill="url(#paint20_linear_38_2557)"/>
</g>
<defs>
<linearGradient id="paint0_linear_38_2557" x1="-385.973" y1="3429.56" x2="-385.973" y2="2109.65" gradientUnits="userSpaceOnUse">
<stop stop-color="#1F232D" stop-opacity="0"/>
<stop offset="0.348958" stop-color="#1E222B"/>
<stop offset="0.703125" stop-color="#191C24"/>
<stop offset="1" stop-color="#181B22" stop-opacity="0"/>
</linearGradient>
<linearGradient id="paint1_linear_38_2557" x1="-635.666" y1="2769.55" x2="-851" y2="2769.74" gradientUnits="userSpaceOnUse">
<stop stop-color="#262B37"/>
<stop offset="1" stop-color="#181B22" stop-opacity="0"/>
</linearGradient>
<linearGradient id="paint2_linear_38_2557" x1="-534.594" y1="2668.48" x2="-749.928" y2="2668.67" gradientUnits="userSpaceOnUse">
<stop stop-color="#262B37"/>
<stop offset="1" stop-color="#181B22" stop-opacity="0"/>
</linearGradient>
<linearGradient id="paint3_linear_38_2557" x1="-433.523" y1="2567.41" x2="-648.856" y2="2567.6" gradientUnits="userSpaceOnUse">
<stop stop-color="#262B37"/>
<stop offset="1" stop-color="#181B22" stop-opacity="0"/>
</linearGradient>
<linearGradient id="paint4_linear_38_2557" x1="-332.904" y1="2466.79" x2="-548.238" y2="2466.98" gradientUnits="userSpaceOnUse">
<stop stop-color="#262B37"/>
<stop offset="1" stop-color="#181B22" stop-opacity="0"/>
</linearGradient>
<linearGradient id="paint5_linear_38_2557" x1="-231.38" y1="2365.27" x2="-446.714" y2="2365.45" gradientUnits="userSpaceOnUse">
<stop stop-color="#262B37"/>
<stop offset="1" stop-color="#181B22" stop-opacity="0"/>
</linearGradient>
<linearGradient id="paint6_linear_38_2557" x1="-130.31" y1="2264.19" x2="-345.644" y2="2264.38" gradientUnits="userSpaceOnUse">
<stop stop-color="#262B37"/>
<stop offset="1" stop-color="#181B22" stop-opacity="0"/>
</linearGradient>
<linearGradient id="paint7_linear_38_2557" x1="98.0272" y1="1406.7" x2="98.0272" y2="657.647" gradientUnits="userSpaceOnUse">
<stop stop-color="#1F232D" stop-opacity="0"/>
<stop offset="0.348958" stop-color="#1E222B"/>
<stop offset="0.703125" stop-color="#191C24"/>
<stop offset="1" stop-color="#181B22" stop-opacity="0"/>
</linearGradient>
<linearGradient id="paint8_linear_38_2557" x1="-151.666" y1="1032.14" x2="-367" y2="1032.47" gradientUnits="userSpaceOnUse">
<stop stop-color="#262B37"/>
<stop offset="1" stop-color="#181B22" stop-opacity="0"/>
</linearGradient>
<linearGradient id="paint9_linear_38_2557" x1="-50.5938" y1="931.07" x2="-265.927" y2="931.4" gradientUnits="userSpaceOnUse">
<stop stop-color="#262B37"/>
<stop offset="1" stop-color="#181B22" stop-opacity="0"/>
</linearGradient>
<linearGradient id="paint10_linear_38_2557" x1="50.477" y1="829.998" x2="-164.857" y2="830.327" gradientUnits="userSpaceOnUse">
<stop stop-color="#262B37"/>
<stop offset="1" stop-color="#181B22" stop-opacity="0"/>
</linearGradient>
<linearGradient id="paint11_linear_38_2557" x1="151.097" y1="729.379" x2="-64.2367" y2="729.708" gradientUnits="userSpaceOnUse">
<stop stop-color="#262B37"/>
<stop offset="1" stop-color="#181B22" stop-opacity="0"/>
</linearGradient>
<linearGradient id="paint12_linear_38_2557" x1="252.62" y1="627.855" x2="37.2868" y2="628.185" gradientUnits="userSpaceOnUse">
<stop stop-color="#262B37"/>
<stop offset="1" stop-color="#181B22" stop-opacity="0"/>
</linearGradient>
<linearGradient id="paint13_linear_38_2557" x1="353.691" y1="526.784" x2="138.357" y2="527.113" gradientUnits="userSpaceOnUse">
<stop stop-color="#262B37"/>
<stop offset="1" stop-color="#181B22" stop-opacity="0"/>
</linearGradient>
<linearGradient id="paint14_linear_38_2557" x1="465.027" y1="1319.92" x2="465.027" y2="0" gradientUnits="userSpaceOnUse">
<stop stop-color="#1F232D" stop-opacity="0"/>
<stop offset="0.348958" stop-color="#1E222B"/>
<stop offset="0.703125" stop-color="#191C24"/>
<stop offset="1" stop-color="#181B22" stop-opacity="0"/>
</linearGradient>
<linearGradient id="paint15_linear_38_2557" x1="215.334" y1="659.905" x2="-0.000211721" y2="660.092" gradientUnits="userSpaceOnUse">
<stop stop-color="#262B37"/>
<stop offset="1" stop-color="#181B22" stop-opacity="0"/>
</linearGradient>
<linearGradient id="paint16_linear_38_2557" x1="215.334" y1="659.905" x2="-0.000211721" y2="660.092" gradientUnits="userSpaceOnUse">
<stop stop-color="#262B37"/>
<stop offset="1" stop-color="#181B22" stop-opacity="0"/>
</linearGradient>
<linearGradient id="paint17_linear_38_2557" x1="215.334" y1="659.905" x2="-0.000211721" y2="660.092" gradientUnits="userSpaceOnUse">
<stop stop-color="#262B37"/>
<stop offset="1" stop-color="#181B22" stop-opacity="0"/>
</linearGradient>
<linearGradient id="paint18_linear_38_2557" x1="215.334" y1="659.905" x2="-0.000211721" y2="660.092" gradientUnits="userSpaceOnUse">
<stop stop-color="#262B37"/>
<stop offset="1" stop-color="#181B22" stop-opacity="0"/>
</linearGradient>
<linearGradient id="paint19_linear_38_2557" x1="215.334" y1="659.905" x2="-0.000211721" y2="660.092" gradientUnits="userSpaceOnUse">
<stop stop-color="#262B37"/>
<stop offset="1" stop-color="#181B22" stop-opacity="0"/>
</linearGradient>
<linearGradient id="paint20_linear_38_2557" x1="215.334" y1="659.905" x2="-0.000211721" y2="660.092" gradientUnits="userSpaceOnUse">
<stop stop-color="#262B37"/>
<stop offset="1" stop-color="#181B22" stop-opacity="0"/>
</linearGradient>
</defs>
</svg>
