<svg width="94" height="112" viewBox="0 0 94 112" fill="none" xmlns="http://www.w3.org/2000/svg">
<path fill-rule="evenodd" clip-rule="evenodd" d="M47 112C53.9965 101.834 58.8368 96.6089 69 88H25C35.1632 96.6089 40.0035 101.834 47 112Z" fill="#40495C"/>
<path fill-rule="evenodd" clip-rule="evenodd" d="M47 112C53.9965 101.834 58.8368 96.6089 69 88H25C35.1632 96.6089 40.0035 101.834 47 112Z" fill="url(#paint0_radial_36_9119)"/>
<path fill-rule="evenodd" clip-rule="evenodd" d="M25 88C26.2335 89.0449 27.3886 90.0399 28.4787 91C35.5649 97.2411 39.9026 102.005 45.1652 109.379C45.7631 110.217 46.3729 111.089 47 112C47.6271 111.089 48.2369 110.217 48.8348 109.379C54.0974 102.005 58.4351 97.2411 65.5213 91C66.6114 90.0399 67.7665 89.0449 69 88H25ZM32.9675 91C38.5547 96.129 42.4998 100.574 47 106.792C51.5002 100.574 55.4453 96.129 61.0325 91H32.9675Z" fill="black"/>
<path fill-rule="evenodd" clip-rule="evenodd" d="M25 88C26.2335 89.0449 27.3886 90.0399 28.4787 91C35.5649 97.2411 39.9026 102.005 45.1652 109.379C45.7631 110.217 46.3729 111.089 47 112C47.6271 111.089 48.2369 110.217 48.8348 109.379C54.0974 102.005 58.4351 97.2411 65.5213 91C66.6114 90.0399 67.7665 89.0449 69 88H25ZM32.9675 91C38.5547 96.129 42.4998 100.574 47 106.792C51.5002 100.574 55.4453 96.129 61.0325 91H32.9675Z" fill="#40495C"/>
<path d="M47 94C72.9574 94 94 72.9574 94 47C94 21.0426 72.9574 0 47 0C21.0426 0 0 21.0426 0 47C0 72.9574 21.0426 94 47 94Z" fill="url(#paint1_radial_36_9119)"/>
<path fill-rule="evenodd" clip-rule="evenodd" d="M47 91C71.3005 91 91 71.3005 91 47C91 22.6995 71.3005 3 47 3C22.6995 3 3 22.6995 3 47C3 71.3005 22.6995 91 47 91ZM94 47C94 72.9574 72.9574 94 47 94C21.0426 94 0 72.9574 0 47C0 21.0426 21.0426 0 47 0C72.9574 0 94 21.0426 94 47Z" fill="#40495C"/>
<path d="M21.7631 74.4341L20.2248 69.3836L20.262 69.3092L20.3032 69.2955L20.511 69.2321L24.6153 67.9805L33.7371 65.1988L26.7078 42.1281L13.5588 46.1367L12 41.0305L12.0979 40.9962L12.3074 40.9323L15.5896 39.9318L43.4071 31.4515L44.9649 36.5607L31.817 40.5713L34.5586 49.551L36.2711 49.0291L37.8279 54.1383L36.1164 54.6602L38.858 63.6409L69.1401 54.4086L66.3985 45.4288L62.1008 46.7384L61.3441 46.969L62.3556 50.2879L62.4408 50.5674L62.4035 50.6408L62.3634 50.6535L57.3492 52.182L56.2349 48.5268L53.3954 49.3924L51.8689 44.3841C51.8606 44.3573 51.8633 44.3284 51.8763 44.3036C51.8894 44.2788 51.9117 44.2602 51.9384 44.2519L52.1376 44.1913L54.68 43.4176L54.0545 41.3647L53.8252 40.6124L53.8624 40.5389L53.9036 40.5272L54.1024 40.4666L58.9168 38.9987L59.7824 41.8598L64.8377 40.3196L62.0961 31.3389L49.0979 35.3025L47.543 30.1962L47.6341 30.1659L47.8484 30.1005L51.4916 28.9895L65.6504 24.6719L65.6788 24.7698L74.8104 54.7226L75.7983 57.9629L75.7004 57.9913L21.7631 74.4341ZM20.45 69.4551L21.8456 74.0451L21.8894 74.1893L22.0116 74.152L75.5554 57.8307L65.5211 24.9167L47.7849 30.3235L49.1822 34.9071L49.2281 35.0577L49.3444 35.0222L62.0931 31.1359L62.2302 31.0941L62.2586 31.192L62.2682 31.2236L65.0815 40.4538L59.6521 42.1075L58.7797 39.2455L54.0455 40.6897L54.2332 41.305L54.918 43.5508L52.0784 44.4164L53.4757 48.9997L53.5217 49.1505L53.6377 49.1152L56.2289 48.3262L56.3612 48.286L56.4018 48.4189L57.4293 51.7896L57.4755 51.9411L57.5909 51.9059L62.2097 50.4969L61.0954 46.8427L61.894 46.5991L66.3862 45.2292L66.5248 45.187L66.5541 45.2849L66.5629 45.3136L69.378 54.5427L69.2801 54.5711L38.7199 63.8857L38.6915 63.7878L35.8677 54.5261L37.5802 54.0042L36.1369 49.27L34.4225 49.7958L34.3941 49.6979L31.5722 40.443L44.7211 36.4285L43.2779 31.6933L12.2458 41.1578L13.6433 45.743L13.689 45.8929L13.8059 45.8573L26.7053 41.9247L26.838 41.8843L26.8784 42.0168L33.9848 65.329L20.45 69.4551Z" fill="url(#paint2_linear_36_9119)"/>
<path d="M21.7631 74.4341L20.2248 69.3836L20.262 69.3092L20.3032 69.2955L20.511 69.2321L24.6153 67.9805L33.7371 65.1988L26.7078 42.1281L13.5588 46.1367L12 41.0305L12.0979 40.9962L12.3074 40.9323L15.5896 39.9318L43.4071 31.4515L44.9649 36.5607L31.817 40.5713L34.5586 49.551L36.2711 49.0291L37.8279 54.1383L36.1164 54.6602L38.858 63.6409L69.1401 54.4086L66.3985 45.4288L62.1008 46.7384L61.3441 46.969L62.3556 50.2879L62.4408 50.5674L62.4035 50.6408L62.3634 50.6535L57.3492 52.182L56.2349 48.5268L53.3954 49.3924L51.8689 44.3841C51.8606 44.3573 51.8633 44.3284 51.8763 44.3036C51.8894 44.2788 51.9117 44.2602 51.9384 44.2519L52.1376 44.1913L54.68 43.4176L54.0545 41.3647L53.8252 40.6124L53.8624 40.5389L53.9036 40.5272L54.1024 40.4666L58.9168 38.9987L59.7824 41.8598L64.8377 40.3196L62.0961 31.3389L49.0979 35.3025L47.543 30.1962L47.6341 30.1659L47.8484 30.1005L51.4916 28.9895L65.6504 24.6719L65.6788 24.7698L74.8104 54.7226L75.7983 57.9629L75.7004 57.9913L21.7631 74.4341ZM20.45 69.4551L21.8456 74.0451L21.8894 74.1893L22.0116 74.152L75.5554 57.8307L65.5211 24.9167L47.7849 30.3235L49.1822 34.9071L49.2281 35.0577L49.3444 35.0222L62.0931 31.1359L62.2302 31.0941L62.2586 31.192L62.2682 31.2236L65.0815 40.4538L59.6521 42.1075L58.7797 39.2455L54.0455 40.6897L54.2332 41.305L54.918 43.5508L52.0784 44.4164L53.4757 48.9997L53.5217 49.1505L53.6377 49.1152L56.2289 48.3262L56.3612 48.286L56.4018 48.4189L57.4293 51.7896L57.4755 51.9411L57.5909 51.9059L62.2097 50.4969L61.0954 46.8427L61.894 46.5991L66.3862 45.2292L66.5248 45.187L66.5541 45.2849L66.5629 45.3136L69.378 54.5427L69.2801 54.5711L38.7199 63.8857L38.6915 63.7878L35.8677 54.5261L37.5802 54.0042L36.1369 49.27L34.4225 49.7958L34.3941 49.6979L31.5722 40.443L44.7211 36.4285L43.2779 31.6933L12.2458 41.1578L13.6433 45.743L13.689 45.8929L13.8059 45.8573L26.7053 41.9247L26.838 41.8843L26.8784 42.0168L33.9848 65.329L20.45 69.4551Z" fill="#1E1E1E" fill-opacity="0.7"/>
<path d="M14.8566 43.1774L13.6433 45.743L13.5351 45.9719L13.7121 46.0556L13.8059 45.8573L15.0336 43.2611L14.8566 43.1774Z" fill="url(#paint3_linear_36_9119)"/>
<path d="M14.8566 43.1774L13.6433 45.743L13.5351 45.9719L13.7121 46.0556L13.8059 45.8573L15.0336 43.2611L14.8566 43.1774Z" fill="#1E1E1E" fill-opacity="0.7"/>
<path d="M28.0073 39.1716L26.7053 41.9247L26.6858 41.966L26.8628 42.0497L26.8784 42.0168L28.1843 39.2553L28.0073 39.1716Z" fill="url(#paint4_linear_36_9119)"/>
<path d="M28.0073 39.1716L26.7053 41.9247L26.6858 41.966L26.8628 42.0497L26.8784 42.0168L28.1843 39.2553L28.0073 39.1716Z" fill="#1E1E1E" fill-opacity="0.7"/>
<path d="M21.5602 66.5555L20.2387 69.3499L20.4157 69.4336L20.511 69.2321L21.7373 66.6392L21.5602 66.5555Z" fill="url(#paint5_linear_36_9119)"/>
<path d="M21.5602 66.5555L20.2387 69.3499L20.4157 69.4336L20.511 69.2321L21.7373 66.6392L21.5602 66.5555Z" fill="#1E1E1E" fill-opacity="0.7"/>
<path d="M23.0615 71.474L21.8456 74.0451L21.7399 74.2684L21.917 74.3522L22.0116 74.152L23.2385 71.5577L23.0615 71.474Z" fill="url(#paint6_linear_36_9119)"/>
<path d="M23.0615 71.474L21.8456 74.0451L21.7399 74.2684L21.917 74.3522L22.0116 74.152L23.2385 71.5577L23.0615 71.474Z" fill="#1E1E1E" fill-opacity="0.7"/>
<path d="M63.5672 47.7259L62.3556 50.2879L62.2457 50.5204L62.4227 50.6041L63.7442 47.8096L63.5672 47.7259Z" fill="url(#paint7_linear_36_9119)"/>
<path d="M63.5672 47.7259L62.3556 50.2879L62.2457 50.5204L62.4227 50.6041L63.7442 47.8096L63.5672 47.7259Z" fill="#1E1E1E" fill-opacity="0.7"/>
<path d="M58.6432 49.2228L57.4293 51.7896L57.3217 52.0173L57.4987 52.101L57.5909 51.9059L58.8202 49.3065L58.6432 49.2228Z" fill="url(#paint8_linear_36_9119)"/>
<path d="M58.6432 49.2228L57.4293 51.7896L57.3217 52.0173L57.4987 52.101L57.5909 51.9059L58.8202 49.3065L58.6432 49.2228Z" fill="#1E1E1E" fill-opacity="0.7"/>
<path d="M54.6898 46.4324L53.4757 48.9997L53.3682 49.2269L53.5453 49.3106L53.6377 49.1152L54.8668 46.5161L54.6898 46.4324Z" fill="url(#paint9_linear_36_9119)"/>
<path d="M54.6898 46.4324L53.4757 48.9997L53.3682 49.2269L53.5453 49.3106L53.6377 49.1152L54.8668 46.5161L54.6898 46.4324Z" fill="#1E1E1E" fill-opacity="0.7"/>
<path d="M57.5317 45.5714L56.2289 48.3262L56.2102 48.3659L56.3872 48.4496L56.4018 48.4189L57.7088 45.6551L57.5317 45.5714Z" fill="url(#paint10_linear_36_9119)"/>
<path d="M57.5317 45.5714L56.2289 48.3262L56.2102 48.3659L56.3872 48.4496L56.4018 48.4189L57.7088 45.6551L57.5317 45.5714Z" fill="#1E1E1E" fill-opacity="0.7"/>
<path d="M53.1886 41.511L51.867 44.3054L52.0441 44.3891L52.1376 44.1913L53.3656 41.5947L53.1886 41.511Z" fill="url(#paint11_linear_36_9119)"/>
<path d="M53.1886 41.511L51.867 44.3054L52.0441 44.3891L52.1376 44.1913L53.3656 41.5947L53.1886 41.511Z" fill="#1E1E1E" fill-opacity="0.7"/>
<path d="M55.1549 37.783L53.8334 40.5774L54.0104 40.6611L54.1024 40.4666L55.3319 37.8667L55.1549 37.783Z" fill="url(#paint12_linear_36_9119)"/>
<path d="M55.1549 37.783L53.8334 40.5774L54.0104 40.6611L54.1024 40.4666L55.3319 37.8667L55.1549 37.783Z" fill="#1E1E1E" fill-opacity="0.7"/>
<path d="M67.692 42.468L66.3862 45.2292L66.3705 45.2624L66.5475 45.3462L66.5629 45.3136L67.869 42.5517L67.692 42.468Z" fill="url(#paint13_linear_36_9119)"/>
<path d="M67.692 42.468L66.3862 45.2292L66.3705 45.2624L66.5475 45.3462L66.5629 45.3136L67.869 42.5517L67.692 42.468Z" fill="#1E1E1E" fill-opacity="0.7"/>
<path d="M63.3969 28.379L62.0931 31.1359L62.0753 31.1734L62.2524 31.2571L62.2682 31.2236L63.5739 28.4627L63.3969 28.379Z" fill="url(#paint14_linear_36_9119)"/>
<path d="M63.3969 28.379L62.0931 31.1359L62.0753 31.1734L62.2524 31.2571L62.2682 31.2236L63.5739 28.4627L63.3969 28.379Z" fill="#1E1E1E" fill-opacity="0.7"/>
<path d="M48.8978 27.4235L47.5763 30.2179L47.7533 30.3016L47.8484 30.1005L49.0748 27.5072L48.8978 27.4235Z" fill="url(#paint15_linear_36_9119)"/>
<path d="M48.8978 27.4235L47.5763 30.2179L47.7533 30.3016L47.8484 30.1005L49.0748 27.5072L48.8978 27.4235Z" fill="#1E1E1E" fill-opacity="0.7"/>
<path d="M50.3946 32.3434L49.1822 34.9071L49.0731 35.1378L49.2501 35.2216L49.3444 35.0222L50.5717 32.4271L50.3946 32.3434Z" fill="url(#paint16_linear_36_9119)"/>
<path d="M50.3946 32.3434L49.1822 34.9071L49.0731 35.1378L49.2501 35.2216L49.3444 35.0222L50.5717 32.4271L50.3946 32.3434Z" fill="#1E1E1E" fill-opacity="0.7"/>
<path d="M13.3565 38.256L12.0349 41.0504L12.212 41.1341L12.3074 40.9323L13.5335 38.3397L13.3565 38.256Z" fill="url(#paint17_linear_36_9119)"/>
<path d="M13.3565 38.256L12.0349 41.0504L12.212 41.1341L12.3074 40.9323L13.5335 38.3397L13.3565 38.256Z" fill="#1E1E1E" fill-opacity="0.7"/>
<path d="M20.45 69.4551L21.8456 74.0451L23.0615 71.474L23.2385 71.5577L22.0116 74.152L75.5554 57.8307L65.5211 24.9167L47.7849 30.3235L49.1822 34.9071L50.3946 32.3434L50.5717 32.4271L49.3444 35.0222L62.0931 31.1359L63.3969 28.379L63.5739 28.4627L62.2682 31.2236L65.0815 40.4538L59.6521 42.1075L58.7797 39.2455L54.0455 40.6897L54.2332 41.305L54.918 43.5508L52.0784 44.4164L53.4757 48.9997L54.6898 46.4324L54.8668 46.5161L53.6377 49.1152L56.2289 48.3262L57.5317 45.5714L57.7088 45.6551L56.4018 48.4189L57.4293 51.7896L58.6432 49.2228L58.8202 49.3065L57.5909 51.9059L62.2097 50.4969L61.0954 46.8427L61.894 46.5991L66.3862 45.2292L67.692 42.468L67.869 42.5517L66.5629 45.3136L69.378 54.5427L69.2801 54.5711L38.7199 63.8857L38.6915 63.7878L35.8677 54.5261L37.5802 54.0042L36.1369 49.27L34.4225 49.7958L34.3941 49.6979L31.5722 40.443L44.7211 36.4285L43.2779 31.6933L12.2458 41.1578L13.6433 45.743L14.8566 43.1774L15.0336 43.2611L13.8059 45.8573L26.7053 41.9247L28.0073 39.1716L28.1843 39.2553L26.8784 42.0168L33.9848 65.329L20.45 69.4551Z" fill="url(#paint18_linear_36_9119)"/>
<path d="M20.45 69.4551L21.8456 74.0451L23.0615 71.474L23.2385 71.5577L22.0116 74.152L75.5554 57.8307L65.5211 24.9167L47.7849 30.3235L49.1822 34.9071L50.3946 32.3434L50.5717 32.4271L49.3444 35.0222L62.0931 31.1359L63.3969 28.379L63.5739 28.4627L62.2682 31.2236L65.0815 40.4538L59.6521 42.1075L58.7797 39.2455L54.0455 40.6897L54.2332 41.305L54.918 43.5508L52.0784 44.4164L53.4757 48.9997L54.6898 46.4324L54.8668 46.5161L53.6377 49.1152L56.2289 48.3262L57.5317 45.5714L57.7088 45.6551L56.4018 48.4189L57.4293 51.7896L58.6432 49.2228L58.8202 49.3065L57.5909 51.9059L62.2097 50.4969L61.0954 46.8427L61.894 46.5991L66.3862 45.2292L67.692 42.468L67.869 42.5517L66.5629 45.3136L69.378 54.5427L69.2801 54.5711L38.7199 63.8857L38.6915 63.7878L35.8677 54.5261L37.5802 54.0042L36.1369 49.27L34.4225 49.7958L34.3941 49.6979L31.5722 40.443L44.7211 36.4285L43.2779 31.6933L12.2458 41.1578L13.6433 45.743L14.8566 43.1774L15.0336 43.2611L13.8059 45.8573L26.7053 41.9247L28.0073 39.1716L28.1843 39.2553L26.8784 42.0168L33.9848 65.329L20.45 69.4551Z" fill="#1E1E1E" fill-opacity="0.7"/>
<path d="M52.1376 44.1913L54.68 43.4176L54.0545 41.3647L53.3656 41.5947L52.1376 44.1913Z" fill="url(#paint19_linear_36_9119)"/>
<path d="M52.1376 44.1913L54.68 43.4176L54.0545 41.3647L53.3656 41.5947L52.1376 44.1913Z" fill="#1E1E1E" fill-opacity="0.7"/>
<path d="M54.1024 40.4666L58.9168 38.9987L55.3319 37.8667L54.1024 40.4666Z" fill="url(#paint20_linear_36_9119)"/>
<path d="M54.1024 40.4666L58.9168 38.9987L55.3319 37.8667L54.1024 40.4666Z" fill="#1E1E1E" fill-opacity="0.7"/>
<path d="M49.0748 27.5072L47.8484 30.1005L51.4916 28.9895L49.0748 27.5072Z" fill="url(#paint21_linear_36_9119)"/>
<path d="M49.0748 27.5072L47.8484 30.1005L51.4916 28.9895L49.0748 27.5072Z" fill="#1E1E1E" fill-opacity="0.7"/>
<path d="M62.1008 46.7384L61.3441 46.969L62.3556 50.2879L63.5672 47.7259L62.1008 46.7384Z" fill="url(#paint22_linear_36_9119)"/>
<path d="M62.1008 46.7384L61.3441 46.969L62.3556 50.2879L63.5672 47.7259L62.1008 46.7384Z" fill="#1E1E1E" fill-opacity="0.7"/>
<path d="M21.7373 66.6392L20.511 69.2321L24.6153 67.9805L21.7373 66.6392Z" fill="url(#paint23_linear_36_9119)"/>
<path d="M21.7373 66.6392L20.511 69.2321L24.6153 67.9805L21.7373 66.6392Z" fill="#1E1E1E" fill-opacity="0.7"/>
<path d="M13.5335 38.3397L12.3074 40.9323L15.5896 39.9318L13.5335 38.3397Z" fill="url(#paint24_linear_36_9119)"/>
<path d="M13.5335 38.3397L12.3074 40.9323L15.5896 39.9318L13.5335 38.3397Z" fill="#1E1E1E" fill-opacity="0.7"/>
<path d="M74.8104 54.7226L75.7983 57.9629L76.9996 55.0373L74.8104 54.7226Z" fill="url(#paint25_linear_36_9119)"/>
<path d="M74.8104 54.7226L75.7983 57.9629L76.9996 55.0373L74.8104 54.7226Z" fill="#1E1E1E" fill-opacity="0.7"/>
<path d="M66.9077 22L76.9998 55.101L23.1506 71.5184L21.6506 66.5962L35.1853 62.4701L28.0943 39.2124L14.9454 43.221L13.4453 38.2989L44.6654 28.7816L46.1655 33.7037L33.0165 37.7124L35.811 46.8801L37.5235 46.3573L39.0245 51.2794L37.312 51.8013L40.1065 60.9691L70.5766 51.6799L67.7821 42.5121L62.5397 44.1101L63.654 47.7653L58.7318 49.2663L57.6176 45.6111L54.78 46.4757L53.2799 41.5545L56.1175 40.689L55.2451 37.8279L60.1673 36.3269L61.0397 39.1889L66.282 37.591L63.4866 28.4232L50.4845 32.3868L48.9844 27.4646L66.9077 22Z" fill="url(#paint26_linear_36_9119)"/>
<defs>
<radialGradient id="paint0_radial_36_9119" cx="0" cy="0" r="1" gradientUnits="userSpaceOnUse" gradientTransform="translate(47 100) rotate(90) scale(12 22)">
<stop stop-color="#363E51"/>
<stop offset="1" stop-color="#181B22"/>
</radialGradient>
<radialGradient id="paint1_radial_36_9119" cx="0" cy="0" r="1" gradientUnits="userSpaceOnUse" gradientTransform="translate(47 47) rotate(90) scale(47)">
<stop stop-color="#363E51"/>
<stop offset="1" stop-color="#181B22"/>
</radialGradient>
<linearGradient id="paint2_linear_36_9119" x1="12" y1="49.5525" x2="76.9996" y2="49.5525" gradientUnits="userSpaceOnUse">
<stop stop-color="#571387"/>
<stop offset="0.25" stop-color="#9F16FF"/>
<stop offset="0.55" stop-color="white"/>
<stop offset="0.75" stop-color="#9F16FF"/>
<stop offset="1" stop-color="#571387"/>
</linearGradient>
<linearGradient id="paint3_linear_36_9119" x1="12" y1="49.5525" x2="76.9996" y2="49.5525" gradientUnits="userSpaceOnUse">
<stop stop-color="#571387"/>
<stop offset="0.25" stop-color="#9F16FF"/>
<stop offset="0.55" stop-color="white"/>
<stop offset="0.75" stop-color="#9F16FF"/>
<stop offset="1" stop-color="#571387"/>
</linearGradient>
<linearGradient id="paint4_linear_36_9119" x1="12" y1="49.5525" x2="76.9996" y2="49.5525" gradientUnits="userSpaceOnUse">
<stop stop-color="#571387"/>
<stop offset="0.25" stop-color="#9F16FF"/>
<stop offset="0.55" stop-color="white"/>
<stop offset="0.75" stop-color="#9F16FF"/>
<stop offset="1" stop-color="#571387"/>
</linearGradient>
<linearGradient id="paint5_linear_36_9119" x1="12" y1="49.5525" x2="76.9996" y2="49.5525" gradientUnits="userSpaceOnUse">
<stop stop-color="#571387"/>
<stop offset="0.25" stop-color="#9F16FF"/>
<stop offset="0.55" stop-color="white"/>
<stop offset="0.75" stop-color="#9F16FF"/>
<stop offset="1" stop-color="#571387"/>
</linearGradient>
<linearGradient id="paint6_linear_36_9119" x1="12" y1="49.5525" x2="76.9996" y2="49.5525" gradientUnits="userSpaceOnUse">
<stop stop-color="#571387"/>
<stop offset="0.25" stop-color="#9F16FF"/>
<stop offset="0.55" stop-color="white"/>
<stop offset="0.75" stop-color="#9F16FF"/>
<stop offset="1" stop-color="#571387"/>
</linearGradient>
<linearGradient id="paint7_linear_36_9119" x1="12" y1="49.5525" x2="76.9996" y2="49.5525" gradientUnits="userSpaceOnUse">
<stop stop-color="#571387"/>
<stop offset="0.25" stop-color="#9F16FF"/>
<stop offset="0.55" stop-color="white"/>
<stop offset="0.75" stop-color="#9F16FF"/>
<stop offset="1" stop-color="#571387"/>
</linearGradient>
<linearGradient id="paint8_linear_36_9119" x1="12" y1="49.5525" x2="76.9996" y2="49.5525" gradientUnits="userSpaceOnUse">
<stop stop-color="#571387"/>
<stop offset="0.25" stop-color="#9F16FF"/>
<stop offset="0.55" stop-color="white"/>
<stop offset="0.75" stop-color="#9F16FF"/>
<stop offset="1" stop-color="#571387"/>
</linearGradient>
<linearGradient id="paint9_linear_36_9119" x1="12" y1="49.5525" x2="76.9996" y2="49.5525" gradientUnits="userSpaceOnUse">
<stop stop-color="#571387"/>
<stop offset="0.25" stop-color="#9F16FF"/>
<stop offset="0.55" stop-color="white"/>
<stop offset="0.75" stop-color="#9F16FF"/>
<stop offset="1" stop-color="#571387"/>
</linearGradient>
<linearGradient id="paint10_linear_36_9119" x1="12" y1="49.5525" x2="76.9996" y2="49.5525" gradientUnits="userSpaceOnUse">
<stop stop-color="#571387"/>
<stop offset="0.25" stop-color="#9F16FF"/>
<stop offset="0.55" stop-color="white"/>
<stop offset="0.75" stop-color="#9F16FF"/>
<stop offset="1" stop-color="#571387"/>
</linearGradient>
<linearGradient id="paint11_linear_36_9119" x1="12" y1="49.5525" x2="76.9996" y2="49.5525" gradientUnits="userSpaceOnUse">
<stop stop-color="#571387"/>
<stop offset="0.25" stop-color="#9F16FF"/>
<stop offset="0.55" stop-color="white"/>
<stop offset="0.75" stop-color="#9F16FF"/>
<stop offset="1" stop-color="#571387"/>
</linearGradient>
<linearGradient id="paint12_linear_36_9119" x1="12" y1="49.5525" x2="76.9996" y2="49.5525" gradientUnits="userSpaceOnUse">
<stop stop-color="#571387"/>
<stop offset="0.25" stop-color="#9F16FF"/>
<stop offset="0.55" stop-color="white"/>
<stop offset="0.75" stop-color="#9F16FF"/>
<stop offset="1" stop-color="#571387"/>
</linearGradient>
<linearGradient id="paint13_linear_36_9119" x1="12" y1="49.5525" x2="76.9996" y2="49.5525" gradientUnits="userSpaceOnUse">
<stop stop-color="#571387"/>
<stop offset="0.25" stop-color="#9F16FF"/>
<stop offset="0.55" stop-color="white"/>
<stop offset="0.75" stop-color="#9F16FF"/>
<stop offset="1" stop-color="#571387"/>
</linearGradient>
<linearGradient id="paint14_linear_36_9119" x1="12" y1="49.5525" x2="76.9996" y2="49.5525" gradientUnits="userSpaceOnUse">
<stop stop-color="#571387"/>
<stop offset="0.25" stop-color="#9F16FF"/>
<stop offset="0.55" stop-color="white"/>
<stop offset="0.75" stop-color="#9F16FF"/>
<stop offset="1" stop-color="#571387"/>
</linearGradient>
<linearGradient id="paint15_linear_36_9119" x1="12" y1="49.5525" x2="76.9996" y2="49.5525" gradientUnits="userSpaceOnUse">
<stop stop-color="#571387"/>
<stop offset="0.25" stop-color="#9F16FF"/>
<stop offset="0.55" stop-color="white"/>
<stop offset="0.75" stop-color="#9F16FF"/>
<stop offset="1" stop-color="#571387"/>
</linearGradient>
<linearGradient id="paint16_linear_36_9119" x1="12" y1="49.5525" x2="76.9996" y2="49.5525" gradientUnits="userSpaceOnUse">
<stop stop-color="#571387"/>
<stop offset="0.25" stop-color="#9F16FF"/>
<stop offset="0.55" stop-color="white"/>
<stop offset="0.75" stop-color="#9F16FF"/>
<stop offset="1" stop-color="#571387"/>
</linearGradient>
<linearGradient id="paint17_linear_36_9119" x1="12" y1="49.5525" x2="76.9996" y2="49.5525" gradientUnits="userSpaceOnUse">
<stop stop-color="#571387"/>
<stop offset="0.25" stop-color="#9F16FF"/>
<stop offset="0.55" stop-color="white"/>
<stop offset="0.75" stop-color="#9F16FF"/>
<stop offset="1" stop-color="#571387"/>
</linearGradient>
<linearGradient id="paint18_linear_36_9119" x1="12" y1="49.5525" x2="76.9996" y2="49.5525" gradientUnits="userSpaceOnUse">
<stop stop-color="#571387"/>
<stop offset="0.25" stop-color="#9F16FF"/>
<stop offset="0.55" stop-color="white"/>
<stop offset="0.75" stop-color="#9F16FF"/>
<stop offset="1" stop-color="#571387"/>
</linearGradient>
<linearGradient id="paint19_linear_36_9119" x1="12" y1="49.5525" x2="76.9996" y2="49.5525" gradientUnits="userSpaceOnUse">
<stop stop-color="#571387"/>
<stop offset="0.25" stop-color="#9F16FF"/>
<stop offset="0.55" stop-color="white"/>
<stop offset="0.75" stop-color="#9F16FF"/>
<stop offset="1" stop-color="#571387"/>
</linearGradient>
<linearGradient id="paint20_linear_36_9119" x1="12" y1="49.5525" x2="76.9996" y2="49.5525" gradientUnits="userSpaceOnUse">
<stop stop-color="#571387"/>
<stop offset="0.25" stop-color="#9F16FF"/>
<stop offset="0.55" stop-color="white"/>
<stop offset="0.75" stop-color="#9F16FF"/>
<stop offset="1" stop-color="#571387"/>
</linearGradient>
<linearGradient id="paint21_linear_36_9119" x1="12" y1="49.5525" x2="76.9996" y2="49.5525" gradientUnits="userSpaceOnUse">
<stop stop-color="#571387"/>
<stop offset="0.25" stop-color="#9F16FF"/>
<stop offset="0.55" stop-color="white"/>
<stop offset="0.75" stop-color="#9F16FF"/>
<stop offset="1" stop-color="#571387"/>
</linearGradient>
<linearGradient id="paint22_linear_36_9119" x1="12" y1="49.5525" x2="76.9996" y2="49.5525" gradientUnits="userSpaceOnUse">
<stop stop-color="#571387"/>
<stop offset="0.25" stop-color="#9F16FF"/>
<stop offset="0.55" stop-color="white"/>
<stop offset="0.75" stop-color="#9F16FF"/>
<stop offset="1" stop-color="#571387"/>
</linearGradient>
<linearGradient id="paint23_linear_36_9119" x1="12" y1="49.5525" x2="76.9996" y2="49.5525" gradientUnits="userSpaceOnUse">
<stop stop-color="#571387"/>
<stop offset="0.25" stop-color="#9F16FF"/>
<stop offset="0.55" stop-color="white"/>
<stop offset="0.75" stop-color="#9F16FF"/>
<stop offset="1" stop-color="#571387"/>
</linearGradient>
<linearGradient id="paint24_linear_36_9119" x1="12" y1="49.5525" x2="76.9996" y2="49.5525" gradientUnits="userSpaceOnUse">
<stop stop-color="#571387"/>
<stop offset="0.25" stop-color="#9F16FF"/>
<stop offset="0.55" stop-color="white"/>
<stop offset="0.75" stop-color="#9F16FF"/>
<stop offset="1" stop-color="#571387"/>
</linearGradient>
<linearGradient id="paint25_linear_36_9119" x1="12" y1="49.5525" x2="76.9996" y2="49.5525" gradientUnits="userSpaceOnUse">
<stop stop-color="#571387"/>
<stop offset="0.25" stop-color="#9F16FF"/>
<stop offset="0.55" stop-color="white"/>
<stop offset="0.75" stop-color="#9F16FF"/>
<stop offset="1" stop-color="#571387"/>
</linearGradient>
<linearGradient id="paint26_linear_36_9119" x1="13.4453" y1="46.7587" x2="76.9998" y2="46.7587" gradientUnits="userSpaceOnUse">
<stop stop-color="#571387"/>
<stop offset="0.25" stop-color="#9F16FF"/>
<stop offset="0.55" stop-color="white"/>
<stop offset="0.75" stop-color="#9F16FF"/>
<stop offset="1" stop-color="#571387"/>
</linearGradient>
</defs>
</svg>
