<svg width="22" height="22" viewBox="0 0 22 22" fill="none" xmlns="http://www.w3.org/2000/svg">
<path d="M18.9814 10.3521L12.5648 3.93546C12.2068 3.5775 11.6265 3.5775 11.2686 3.93546C10.9106 4.29342 10.9106 4.87367 11.2686 5.23163L16.1205 10.0835H3.66667C3.16067 10.0835 2.75 10.4942 2.75 11.0002C2.75 11.5062 3.16067 11.9169 3.66667 11.9169H16.1205L11.2686 16.7688C10.9106 17.1267 10.9106 17.707 11.2686 18.065C11.4478 18.2442 11.682 18.3335 11.9167 18.3335C12.1513 18.3335 12.3855 18.2442 12.5648 18.065L18.9814 11.6483C19.3394 11.2903 19.3394 10.7101 18.9814 10.3521Z" fill="white"/>
</svg>
