<svg width="38" height="38" viewBox="0 0 38 38" fill="none" xmlns="http://www.w3.org/2000/svg">
<path d="M7.00625 31.1128H8.86667L26.2438 13.6962L24.3833 11.7962L7.00625 29.2128V31.1128ZM31.9438 11.9941L26.0854 6.09616L27.55 4.67116C28.1306 4.06421 28.8431 3.76074 29.6875 3.76074C30.5319 3.76074 31.2444 4.05102 31.825 4.63158L33.5667 6.41283C34.1208 6.96699 34.3847 7.63331 34.3583 8.41178C34.3319 9.19026 34.0549 9.85658 33.5271 10.4107L31.9438 11.9941ZM30.3208 13.617L10.0146 33.9628H4.15625V28.0649L24.4625 7.75866L30.3208 13.617ZM25.3333 12.7462L24.3833 11.7962L26.2438 13.6962L25.3333 12.7462Z" fill="white"/>
</svg>
