<svg width="339" height="343" viewBox="0 0 339 343" fill="none" xmlns="http://www.w3.org/2000/svg">
<path d="M296.26 193.381L300.817 178.081" stroke="#555E75" stroke-width="2.8347" stroke-miterlimit="10"/>
<path d="M306.188 187.953L290.889 183.508" stroke="#555E75" stroke-width="2.8347" stroke-miterlimit="10"/>
<g opacity="0.5">
<path d="M252.617 238.736C289.54 192.936 282.068 125.6 235.928 88.3374C189.788 51.0745 122.452 57.9951 85.5297 103.795C48.6071 149.595 56.0791 216.93 102.219 254.193C148.359 291.456 215.695 284.535 252.617 238.736Z" stroke="#555E75" stroke-width="0.4819" stroke-miterlimit="10"/>
<path d="M161.241 188.338C213.967 214.929 260.21 228.842 264.528 219.412C268.847 209.983 229.606 180.782 176.881 154.191C124.155 127.6 77.9124 113.687 73.5937 123.117C69.2751 132.546 108.516 161.747 161.241 188.338Z" stroke="#555E75" stroke-width="0.4819" stroke-miterlimit="10"/>
<path d="M184.609 275.633C182.252 280.786 155.687 272.552 125.307 257.218C94.9277 241.885 72.2079 225.243 74.5649 220.09C76.9219 214.936 103.487 223.17 133.867 238.504C164.247 253.838 186.966 270.48 184.609 275.633Z" stroke="#555E75" stroke-width="0.4819" stroke-miterlimit="10"/>
<path d="M139.839 229.569C186.141 252.94 226.591 265.51 230.188 257.646C233.785 249.782 199.166 224.461 152.864 201.09C106.563 177.72 66.1118 165.15 62.5149 173.014C58.918 180.878 93.5371 206.199 139.839 229.569Z" stroke="#555E75" stroke-width="0.4819" stroke-miterlimit="10"/>
<path d="M204.255 104.025C234.643 119.363 261.193 127.607 263.557 122.439C265.92 117.272 243.202 100.649 212.814 85.3107C182.426 69.9728 155.876 61.7284 153.512 66.8961C151.148 72.0639 173.867 88.687 204.255 104.025Z" stroke="#555E75" stroke-width="0.4819" stroke-miterlimit="10"/>
<path d="M185.258 141.438C231.559 164.809 272.01 177.379 275.607 169.515C279.204 161.651 244.585 136.33 198.283 112.96C151.981 89.5891 111.53 77.0187 107.934 84.8829C104.337 92.747 138.956 118.068 185.258 141.438Z" stroke="#555E75" stroke-width="0.4819" stroke-miterlimit="10"/>
<path d="M122.171 267.447C159.067 285.167 209.969 256.469 235.865 203.349C261.761 150.229 252.844 92.802 215.949 75.0823C179.053 57.3627 128.151 86.0604 102.255 139.181C76.3589 192.301 85.2757 249.728 122.171 267.447Z" stroke="#555E75" stroke-width="0.4819" stroke-miterlimit="10"/>
<path d="M121.272 266.686C132.976 272.1 163.86 233.767 190.252 181.068C216.645 128.368 228.553 81.2581 216.849 75.8441C205.145 70.43 174.262 108.762 147.869 161.462C121.476 214.161 109.568 261.271 121.272 266.686Z" stroke="#555E75" stroke-width="0.4819" stroke-miterlimit="10"/>
</g>
<path opacity="0.36" d="M217.308 287.993C220.301 293.494 227.212 295.502 232.744 292.477C238.277 289.453 240.335 282.542 237.342 277.041C234.35 271.54 227.439 269.533 221.906 272.557C216.374 275.581 214.315 282.492 217.308 287.993Z" stroke="#555E75" stroke-miterlimit="10"/>
<path opacity="0.36" d="M237.308 126.993C240.301 132.494 247.212 134.502 252.744 131.477C258.277 128.453 260.335 121.542 257.342 116.041C254.35 110.54 247.439 108.533 241.906 111.557C236.374 114.581 234.315 121.492 237.308 126.993Z" stroke="#555E75" stroke-miterlimit="10"/>
<path fill-rule="evenodd" clip-rule="evenodd" d="M104.562 108.026L106.543 116.439L108.049 116.056L106.068 107.643L104.562 108.026Z" fill="#555E75"/>
<path fill-rule="evenodd" clip-rule="evenodd" d="M110.335 110.218L101.922 112.359L102.276 113.865L110.689 111.724L110.335 110.218Z" fill="#555E75"/>
<path opacity="0.36" fill-rule="evenodd" clip-rule="evenodd" d="M122.565 151.384C124.279 148.574 127.911 147.649 130.679 149.319C133.446 150.99 134.301 154.622 132.588 157.433C130.875 160.243 127.243 161.168 124.475 159.498C121.707 157.828 120.852 154.195 122.565 151.384ZM130.966 148.848C127.942 147.023 123.973 148.033 122.101 151.104C120.23 154.175 121.164 158.144 124.188 159.969C127.212 161.794 131.181 160.784 133.052 157.713C134.924 154.642 133.99 150.673 130.966 148.848Z" fill="#555E75"/>
</svg>
