<svg width="16" height="16" viewBox="0 0 16 16" fill="none" xmlns="http://www.w3.org/2000/svg">
<path d="M6.60916 0.154389C6.35623 0.152595 6.15289 0.355942 6.15468 0.608867L6.19431 6.19393L0.609466 6.15408C0.356541 6.15229 0.153194 6.35564 0.154989 6.60856L0.174895 9.41404C0.17669 9.66696 0.382943 9.87322 0.635868 9.87501L6.08691 9.91369L6.12559 15.3647C6.12739 15.6177 6.33364 15.8239 6.58656 15.8257L9.39204 15.8456C9.64497 15.8474 9.84831 15.6441 9.84652 15.3911L9.80667 9.80629L15.3917 9.84592C15.6447 9.84771 15.848 9.64437 15.8462 9.39144L15.8261 6.58575C15.8243 6.33282 15.618 6.12657 15.3651 6.12477L9.9145 6.0861L9.87583 0.635485C9.87403 0.382561 9.66778 0.176308 9.41486 0.174513L6.60916 0.154389Z" fill="white"/>
</svg>
