<svg width="12" height="12" viewBox="0 0 12 12" fill="none" xmlns="http://www.w3.org/2000/svg">
<g clip-path="url(#clip0_36_5825)">
<path d="M9.64013 2.2339C9.78663 2.3804 9.78663 2.61765 9.64013 2.76415L6.40513 5.99915L9.64013 9.2339C9.78663 9.3804 9.78663 9.61765 9.64013 9.76415L8.01513 11.3891C7.86863 11.5356 7.63138 11.5356 7.48488 11.3891L2.35987 6.26415C2.28637 6.19115 2.24988 6.09515 2.24988 5.99915C2.24988 5.90315 2.28638 5.80715 2.35963 5.7339L7.48463 0.608903C7.63113 0.462402 7.86838 0.462402 8.01488 0.608903L9.64013 2.2339Z" fill="white"/>
</g>
<defs>
<clipPath id="clip0_36_5825">
<rect width="12" height="12" fill="white" transform="matrix(4.37114e-08 -1 -1 -4.37114e-08 12 12)"/>
</clipPath>
</defs>
</svg>
