<svg width="36" height="36" viewBox="0 0 36 36" fill="none" xmlns="http://www.w3.org/2000/svg">
<path d="M15.375 4.5C9.38667 4.5 4.5 9.38667 4.5 15.375C4.5 21.3633 9.38667 26.25 15.375 26.25C17.8299 26.25 20.0917 25.4198 21.9155 24.0381L28.9395 31.0605C29.0777 31.2045 29.2432 31.3194 29.4264 31.3986C29.6096 31.4778 29.8068 31.5196 30.0063 31.5217C30.2059 31.5237 30.4038 31.4859 30.5886 31.4104C30.7734 31.335 30.9412 31.2235 31.0824 31.0824C31.2235 30.9412 31.335 30.7734 31.4104 30.5886C31.4859 30.4038 31.5237 30.2059 31.5217 30.0063C31.5196 29.8068 31.4778 29.6096 31.3986 29.4264C31.3194 29.2432 31.2045 29.0777 31.0605 28.9395L24.0381 21.9155C25.4198 20.0917 26.25 17.8299 26.25 15.375C26.25 9.38667 21.3633 4.5 15.375 4.5ZM15.375 7.5C19.742 7.5 23.25 11.008 23.25 15.375C23.25 17.4718 22.4355 19.3655 21.1113 20.7729C20.9824 20.8663 20.8692 20.9795 20.7759 21.1084C19.3681 22.4343 17.4733 23.25 15.375 23.25C11.008 23.25 7.5 19.742 7.5 15.375C7.5 11.008 11.008 7.5 15.375 7.5Z" fill="white"/>
</svg>
