<svg width="22" height="22" viewBox="0 0 22 22" fill="none" xmlns="http://www.w3.org/2000/svg">
<path d="M3.01858 10.3521L9.43525 3.93546C9.79321 3.5775 10.3735 3.5775 10.7314 3.93546C11.0894 4.29342 11.0894 4.87367 10.7314 5.23163L5.8795 10.0835H18.3333C18.8393 10.0835 19.25 10.4942 19.25 11.0002C19.25 11.5062 18.8393 11.9169 18.3333 11.9169H5.8795L10.7314 16.7688C11.0894 17.1267 11.0894 17.707 10.7314 18.065C10.5522 18.2442 10.318 18.3335 10.0833 18.3335C9.84867 18.3335 9.61446 18.2442 9.43525 18.065L3.01858 11.6483C2.66063 11.2903 2.66063 10.7101 3.01858 10.3521Z" fill="white"/>
</svg>
