<svg width="80" height="80" viewBox="0 0 80 80" fill="none" xmlns="http://www.w3.org/2000/svg">
<path d="M40 80C62.0914 80 80 62.0914 80 40C80 17.9086 62.0914 0 40 0C17.9086 0 0 17.9086 0 40C0 62.0914 17.9086 80 40 80Z" fill="url(#paint0_radial_38_56)"/>
<path d="M36.8491 35.0282C36.2761 35.0509 35.75 35.5184 35.75 36.1483V43.8524C35.75 44.6923 36.6857 45.2433 37.4204 44.8363L44.3726 40.9843C45.1284 40.5654 45.1284 39.4353 44.3726 39.0165L37.4204 35.1644C37.2367 35.0627 37.0401 35.0206 36.8491 35.0282Z" fill="white"/>
<path fill-rule="evenodd" clip-rule="evenodd" d="M40 77.4468C60.6813 77.4468 77.4468 60.6813 77.4468 40C77.4468 19.3187 60.6813 2.55319 40 2.55319C19.3187 2.55319 2.55319 19.3187 2.55319 40C2.55319 60.6813 19.3187 77.4468 40 77.4468ZM80 40C80 62.0914 62.0914 80 40 80C17.9086 80 0 62.0914 0 40C0 17.9086 17.9086 0 40 0C62.0914 0 80 17.9086 80 40Z" fill="#40495C"/>
<defs>
<radialGradient id="paint0_radial_38_56" cx="0" cy="0" r="1" gradientUnits="userSpaceOnUse" gradientTransform="translate(40 40) rotate(90) scale(40)">
<stop stop-color="#363E51"/>
<stop offset="1" stop-color="#181B22"/>
</radialGradient>
</defs>
</svg>
