<svg width="847" height="999" viewBox="0 0 847 999" fill="none" xmlns="http://www.w3.org/2000/svg">
<mask id="mask0_36_4896" style="mask-type:alpha" maskUnits="userSpaceOnUse" x="0" y="-189" width="1188" height="1188">
<rect width="930.054" height="749.048" transform="matrix(-0.707107 -0.707107 -0.707107 0.707107 1187.3 468.648)" fill="url(#paint0_linear_36_4896)"/>
</mask>
<g mask="url(#mask0_36_4896)">
<rect width="215.371" height="749.048" transform="matrix(-0.707107 -0.707107 -0.707107 0.707107 1187.3 468.648)" fill="url(#paint1_linear_36_4896)"/>
<rect width="215.371" height="749.048" transform="matrix(-0.707107 -0.707107 -0.707107 0.707107 1086.23 367.577)" fill="url(#paint2_linear_36_4896)"/>
<rect width="215.371" height="749.048" transform="matrix(-0.707107 -0.707107 -0.707107 0.707107 985.161 266.505)" fill="url(#paint3_linear_36_4896)"/>
<rect width="215.371" height="749.048" transform="matrix(-0.707107 -0.707107 -0.707107 0.707107 884.542 165.886)" fill="url(#paint4_linear_36_4896)"/>
<rect width="215.371" height="749.048" transform="matrix(-0.707107 -0.707107 -0.707107 0.707107 783.019 64.3623)" fill="url(#paint5_linear_36_4896)"/>
<rect width="215.371" height="749.048" transform="matrix(-0.707107 -0.707107 -0.707107 0.707107 681.948 -36.709)" fill="url(#paint6_linear_36_4896)"/>
</g>
<defs>
<linearGradient id="paint0_linear_36_4896" x1="465.027" y1="749.048" x2="465.027" y2="0" gradientUnits="userSpaceOnUse">
<stop stop-color="#1F232D" stop-opacity="0"/>
<stop offset="0.348958" stop-color="#1E222B"/>
<stop offset="0.703125" stop-color="#191C24"/>
<stop offset="1" stop-color="#181B22" stop-opacity="0"/>
</linearGradient>
<linearGradient id="paint1_linear_36_4896" x1="215.334" y1="374.494" x2="0.000130105" y2="374.823" gradientUnits="userSpaceOnUse">
<stop stop-color="#262B37"/>
<stop offset="1" stop-color="#181B22" stop-opacity="0"/>
</linearGradient>
<linearGradient id="paint2_linear_36_4896" x1="215.334" y1="374.494" x2="0.000130105" y2="374.823" gradientUnits="userSpaceOnUse">
<stop stop-color="#262B37"/>
<stop offset="1" stop-color="#181B22" stop-opacity="0"/>
</linearGradient>
<linearGradient id="paint3_linear_36_4896" x1="215.334" y1="374.494" x2="0.000130105" y2="374.823" gradientUnits="userSpaceOnUse">
<stop stop-color="#262B37"/>
<stop offset="1" stop-color="#181B22" stop-opacity="0"/>
</linearGradient>
<linearGradient id="paint4_linear_36_4896" x1="215.334" y1="374.494" x2="0.000130105" y2="374.823" gradientUnits="userSpaceOnUse">
<stop stop-color="#262B37"/>
<stop offset="1" stop-color="#181B22" stop-opacity="0"/>
</linearGradient>
<linearGradient id="paint5_linear_36_4896" x1="215.334" y1="374.494" x2="0.000130105" y2="374.823" gradientUnits="userSpaceOnUse">
<stop stop-color="#262B37"/>
<stop offset="1" stop-color="#181B22" stop-opacity="0"/>
</linearGradient>
<linearGradient id="paint6_linear_36_4896" x1="215.334" y1="374.494" x2="0.000130105" y2="374.823" gradientUnits="userSpaceOnUse">
<stop stop-color="#262B37"/>
<stop offset="1" stop-color="#181B22" stop-opacity="0"/>
</linearGradient>
</defs>
</svg>
