<svg width="95" height="23" viewBox="0 0 95 23" fill="none" xmlns="http://www.w3.org/2000/svg">
<path d="M26.95 14.0503C27.2993 14.0503 27.6585 14.21 28.0277 14.5393C28.8261 15.2379 29.7542 15.5871 30.812 15.5871C31.8199 15.5871 32.7281 15.2678 33.5364 14.6291C34.3447 13.9904 34.8836 13.1821 35.1431 12.2141H30.3829C30.0935 12.2141 29.834 12.1043 29.5845 11.8948C29.3351 11.6852 29.2153 11.4157 29.2153 11.0964C29.2153 10.7771 29.3251 10.4976 29.5546 10.2881C29.7741 10.0685 30.0536 9.95875 30.3929 9.95875H35.193C34.9435 8.95083 34.4146 8.12254 33.6062 7.46389C32.7979 6.81523 31.8698 6.48591 30.822 6.48591C29.8739 6.48591 29.0157 6.76533 28.2473 7.32418C27.9579 7.56369 27.6785 7.68344 27.409 7.68344C27.0997 7.68344 26.8202 7.56369 26.5907 7.32418C26.3512 7.08468 26.2315 6.81523 26.2315 6.51585C26.2315 6.17655 26.3512 5.91708 26.5907 5.71749C27.7184 4.71955 29.1454 4.22058 30.8419 4.22058C32.748 4.22058 34.3547 4.87922 35.672 6.19651C36.2907 6.80525 36.7697 7.53375 37.099 8.39198C37.4284 9.24023 37.598 10.1284 37.598 11.0465C37.598 13.0025 36.9493 14.6191 35.662 15.9165C34.3547 17.2238 32.748 17.8724 30.8519 17.8724C29.9538 17.8724 29.0955 17.7028 28.2573 17.3635C27.419 17.0242 26.7005 16.5352 26.0718 15.8965C25.9121 15.7368 25.8323 15.5173 25.8323 15.2478C25.8323 14.9385 25.952 14.6591 26.1915 14.4295C26.4011 14.1701 26.6606 14.0503 26.95 14.0503ZM51.2798 4.77943C51.4794 4.43015 51.7688 4.24054 52.158 4.20062C52.5172 4.20062 52.8166 4.3104 53.0661 4.51996C53.3056 4.72953 53.4254 4.99898 53.4254 5.31832V16.8146C53.4254 17.124 53.3156 17.3735 53.096 17.5531C52.8765 17.7327 52.5971 17.8225 52.2678 17.8225C51.9484 17.8225 51.679 17.7327 51.4694 17.5631C51.2598 17.3934 51.1501 17.1439 51.1301 16.8346V9.31009L47.6972 14.669C47.6373 14.7888 47.5076 14.9385 47.318 15.0882C47.1284 15.2478 46.8988 15.3177 46.6394 15.3177C46.2402 15.3177 45.9009 15.1081 45.6314 14.699L42.1786 9.31009V16.8445C42.1686 17.1439 42.0488 17.3834 41.8293 17.5531C41.6097 17.7227 41.3503 17.8126 41.0409 17.8126C40.7315 17.8126 40.4621 17.7227 40.2426 17.5331C40.023 17.3435 39.9033 17.114 39.9033 16.8246V5.34826C39.9033 5.03889 40.0031 4.76945 40.2126 4.53992C40.4222 4.3104 40.6916 4.19064 41.021 4.19064C41.46 4.19064 41.8093 4.41019 42.0888 4.83931L46.6394 12.2141L51.2798 4.77943ZM65.9695 4.29044C66.2689 4.29044 66.5084 4.39023 66.698 4.58982C66.8876 4.78941 66.9774 5.03889 66.9774 5.33828V16.8645C66.9774 17.104 66.8677 17.3236 66.6581 17.5132C66.4485 17.7128 66.1691 17.8126 65.8198 17.8126C65.4705 17.8126 65.1911 17.7128 64.9915 17.5232C64.782 17.3335 64.6822 17.114 64.6822 16.8645V6.60566H58.9939V16.8645C58.9939 17.124 58.8841 17.3535 58.6745 17.5331C58.465 17.7227 58.1856 17.8126 57.8363 17.8126C57.5169 17.8126 57.2375 17.7227 57.018 17.5531C56.7984 17.3834 56.6787 17.1539 56.6787 16.8645V5.33828C56.6787 5.06883 56.7884 4.81935 57.008 4.60978C57.2275 4.40021 57.467 4.29044 57.7465 4.29044H65.9695ZM80.4496 4.65968C80.6592 4.84928 80.769 5.10875 80.769 5.44805V16.5851C80.769 16.9044 80.6592 17.1838 80.4397 17.3934C80.2201 17.613 79.9507 17.7227 79.6313 17.7227C79.292 17.7227 79.0226 17.613 78.813 17.4034C78.6035 17.1938 78.4937 16.9144 78.4937 16.5851V8.82109L72.3464 17.2737C72.1867 17.4932 71.9671 17.6429 71.6977 17.7028C71.4282 17.7627 71.1688 17.7327 70.9193 17.613C70.7097 17.5132 70.5301 17.3635 70.4004 17.1539C70.2607 16.9443 70.1908 16.7348 70.1908 16.5052V5.2784C70.1908 4.96904 70.2906 4.72953 70.5002 4.5499C70.7097 4.38025 70.9991 4.29044 71.3684 4.29044C71.6877 4.29044 71.9572 4.38025 72.1567 4.55988C72.3663 4.73951 72.4661 4.97902 72.4661 5.2784V13.1721L78.5835 4.78941C78.7831 4.49003 79.0725 4.33036 79.4517 4.30042C79.8509 4.28046 80.1802 4.40021 80.4496 4.65968ZM89.98 15.5772C91.0079 15.5772 91.9359 15.2279 92.7642 14.5293C93.0836 14.21 93.4428 14.0403 93.832 14.0403C94.1214 14.0403 94.3809 14.1601 94.6304 14.3896C94.8799 14.6191 94.9996 14.8886 94.9996 15.1979C94.9996 15.4674 94.9098 15.6969 94.7402 15.8666C93.4229 17.1838 91.8262 17.8425 89.96 17.8425C88.0939 17.8425 86.4972 17.1838 85.1799 15.8666C83.8726 14.5892 83.2239 12.9725 83.2239 11.0166C83.2239 10.1084 83.3936 9.23025 83.7229 8.382C84.0622 7.53375 84.5412 6.80525 85.1599 6.17655C86.4872 4.84929 88.0939 4.18066 89.96 4.18066C91.6765 4.18066 93.0936 4.67964 94.1913 5.67758C94.4408 5.89712 94.5605 6.17655 94.5605 6.51585C94.5605 6.80525 94.4508 7.06472 94.2312 7.30422C94.0117 7.54373 93.7522 7.66348 93.4528 7.66348C93.1834 7.66348 92.874 7.55371 92.5347 7.34414C91.6166 6.75535 90.7584 6.46595 89.96 6.46595C88.7326 6.46595 87.6747 6.91503 86.8065 7.81317C85.9383 8.71132 85.4992 9.76914 85.4992 11.0066C85.4992 12.254 85.9383 13.3218 86.8065 14.2299C87.7047 15.1281 88.7525 15.5772 89.98 15.5772Z" fill="white"/>
<path d="M9.87598 12.6739L22.8492 0L15.4645 22.2541L9.87598 12.6739Z" fill="#0097D1"/>
<path d="M9.97533 12.7735L22.8488 0.0996094L0.0957031 6.88561L9.97533 12.7735Z" fill="#0EB1F2"/>
<path d="M3.08911 19.4596L8.67759 13.8711L11.372 18.5614L3.08911 19.4596Z" fill="#0097D1"/>
<path d="M3.1897 19.4599L8.67838 13.9712L4.08785 11.0771L3.1897 19.4599Z" fill="#0EB1F2"/>
</svg>
