<svg width="23" height="23" viewBox="0 0 23 23" fill="none" xmlns="http://www.w3.org/2000/svg">
<path d="M3.12418 10.7107L9.76317 4.07172C10.1335 3.70136 10.7339 3.70136 11.1042 4.07172C11.4746 4.44208 11.4746 5.04243 11.1042 5.41279L6.08422 10.4328H18.9695C19.4931 10.4328 19.918 10.8577 19.918 11.3812C19.918 11.9048 19.4931 12.3297 18.9695 12.3297H6.08422L11.1042 17.3497C11.4746 17.72 11.4746 18.3204 11.1042 18.6908C10.9188 18.8762 10.6765 18.9687 10.4337 18.9687C10.1909 18.9687 9.94858 18.8762 9.76317 18.6908L3.12418 12.0518C2.75382 11.6814 2.75382 11.0811 3.12418 10.7107Z" fill="#74819D"/>
</svg>
