<svg width="28" height="28" viewBox="0 0 28 28" fill="none" xmlns="http://www.w3.org/2000/svg">
<path d="M23.7788 12.7579L15.9078 4.88693C15.4687 4.44785 14.757 4.44785 14.3179 4.88693C13.8788 5.32602 13.8788 6.03778 14.3179 6.47686L20.2694 12.4284H4.99307C4.37239 12.4284 3.86865 12.9322 3.86865 13.5528C3.86865 14.1735 4.37239 14.6773 4.99307 14.6773H20.2694L14.3179 20.6288C13.8788 21.0679 13.8788 21.7797 14.3179 22.2187C14.5377 22.4386 14.825 22.5482 15.1129 22.5482C15.4007 22.5482 15.688 22.4386 15.9078 22.2187L23.7788 14.3478C24.2178 13.9087 24.2178 13.197 23.7788 12.7579Z" fill="white"/>
</svg>
