<svg width="40" height="40" viewBox="0 0 40 40" fill="none" xmlns="http://www.w3.org/2000/svg">
<rect width="27.86" height="27.86" transform="matrix(-0.707107 0.707107 0.707107 0.707107 19.7002 0)" fill="url(#paint0_linear_36_2587)"/>
<rect width="27.86" height="27.86" transform="matrix(-0.707107 0.707107 0.707107 0.707107 19.7002 0)" fill="url(#paint1_linear_36_2587)"/>
<rect width="27.86" height="27.86" transform="matrix(-0.707107 0.707107 0.707107 0.707107 19.7002 0)" fill="#9F16FF"/>
<path d="M21.9501 17.5415C21.8692 17.6225 21.8692 17.7537 21.9501 17.8346L23.7384 19.6229L21.9501 21.411C21.8692 21.492 21.8692 21.6231 21.9501 21.7041L22.8484 22.6023C22.9294 22.6833 23.0605 22.6833 23.1415 22.6023L25.9745 19.7694C26.0151 19.729 26.0353 19.6759 26.0353 19.6229C26.0353 19.5698 26.0151 19.5167 25.9746 19.4763L23.1417 16.6433C23.0607 16.5623 22.9295 16.5623 22.8485 16.6433L21.9501 17.5415Z" fill="white"/>
<path opacity="0.5" d="M17.9699 17.5415C17.8889 17.6225 17.8889 17.7537 17.9699 17.8346L19.7582 19.6229L17.9699 21.411C17.8889 21.492 17.8889 21.6231 17.9699 21.7041L18.8682 22.6023C18.9492 22.6833 19.0803 22.6833 19.1613 22.6023L21.9943 19.7694C22.0349 19.729 22.0551 19.6759 22.0551 19.6229C22.0551 19.5698 22.0349 19.5167 21.9944 19.4763L19.1614 16.6433C19.0804 16.5623 18.9493 16.5623 18.8683 16.6433L17.9699 17.5415Z" fill="white"/>
<path opacity="0.2" d="M13.9899 17.5415C13.909 17.6225 13.909 17.7537 13.9899 17.8346L15.7782 19.6229L13.9899 21.411C13.909 21.492 13.909 21.6231 13.9899 21.7041L14.8882 22.6023C14.9692 22.6833 15.1003 22.6833 15.1813 22.6023L18.0143 19.7694C18.0549 19.729 18.0751 19.6759 18.0751 19.6229C18.0751 19.5698 18.0549 19.5167 18.0144 19.4763L15.1814 16.6433C15.1005 16.5623 14.9693 16.5623 14.8883 16.6433L13.9899 17.5415Z" fill="white"/>
<defs>
<linearGradient id="paint0_linear_36_2587" x1="0" y1="13.93" x2="27.86" y2="13.93" gradientUnits="userSpaceOnUse">
<stop stop-color="#B54BFF"/>
<stop offset="1" stop-color="#8622CC"/>
</linearGradient>
<linearGradient id="paint1_linear_36_2587" x1="2.02836" y1="27.98" x2="31.7321" y2="11.6363" gradientUnits="userSpaceOnUse">
<stop stop-color="#1EBBFF"/>
<stop offset="1" stop-color="#B03FFF"/>
</linearGradient>
</defs>
</svg>
