<svg width="20" height="20" viewBox="0 0 20 20" fill="none" xmlns="http://www.w3.org/2000/svg">
<path d="M17.9596 5.79961C17.8002 4.91992 17.0408 4.2793 16.1596 4.0793C14.8408 3.79961 12.4002 3.59961 9.75957 3.59961C7.12051 3.59961 4.64082 3.79961 3.32051 4.0793C2.44082 4.2793 1.67988 4.8793 1.52051 5.79961C1.35957 6.79961 1.2002 8.19961 1.2002 9.99961C1.2002 11.7996 1.35957 13.1996 1.55957 14.1996C1.72051 15.0793 2.47988 15.7199 3.35957 15.9199C4.75957 16.1996 7.15957 16.3996 9.8002 16.3996C12.4408 16.3996 14.8408 16.1996 16.2408 15.9199C17.1205 15.7199 17.8799 15.1199 18.0408 14.1996C18.2002 13.1996 18.4002 11.759 18.4408 9.99961C18.3596 8.19961 18.1596 6.79961 17.9596 5.79961ZM7.6002 12.7996V7.19961L12.4799 9.99961L7.6002 12.7996Z" fill="white"/>
</svg>
